<svg width="156" height="48" viewBox="0 0 156 48" fill="none" xmlns="http://www.w3.org/2000/svg">
<path d="M144.542 48H11.458C9.95376 48.0005 8.46414 47.7047 7.07421 47.1295C5.68428 46.5544 4.42126 45.711 3.35728 44.6477C2.29329 43.5843 1.44917 42.3218 0.873131 40.9323C0.297087 39.5427 0.000393896 38.0532 0 36.549V11.449C0.00132582 8.41138 1.20922 5.49869 3.35798 3.35162C5.50675 1.20454 8.42038 -0.0010604 11.458 6.99839e-07H144.542C146.046 -0.000524669 147.536 0.295251 148.926 0.870446C150.316 1.44564 151.579 2.28898 152.643 3.35232C153.707 4.41566 154.551 5.67816 155.127 7.06773C155.703 8.45731 156 9.94675 156 11.451V36.551C156 38.0552 155.703 39.5447 155.127 40.9343C154.551 42.3238 153.707 43.5863 152.643 44.6497C151.579 45.713 150.316 46.5564 148.926 47.1315C147.536 47.7067 146.046 48.0025 144.542 48.002" fill="#F0F5F7"/>
<path d="M61.403 12.2754C62.1448 12.3189 62.8418 12.6442 63.3516 13.1848C63.8614 13.7254 64.1454 14.4404 64.1454 15.1834C64.1454 15.9264 63.8614 16.6414 63.3516 17.182C62.8418 17.7225 62.1448 18.0479 61.403 18.0914H59.448V12.2754H61.403ZM60.174 17.4384H61.355C62.673 17.4384 63.407 16.6324 63.407 15.1894C63.407 13.7464 62.678 12.9284 61.355 12.9284H60.174V17.4384Z" fill="#333333"/>
<path d="M65.145 15.9948C65.1867 15.6202 65.3359 15.2656 65.5746 14.9738C65.8134 14.6821 66.1315 14.4657 66.4905 14.3508C66.8495 14.2359 67.2341 14.2273 67.5979 14.3261C67.9617 14.4249 68.2891 14.6269 68.5407 14.9077C68.7922 15.1885 68.9571 15.5361 69.0154 15.9085C69.0738 16.2809 69.0231 16.6623 68.8695 17.0065C68.7159 17.3508 68.466 17.6433 68.1498 17.8486C67.8337 18.054 67.4649 18.1634 67.088 18.1638C66.8122 18.1671 66.5389 18.1114 66.2864 18.0005C66.0339 17.8895 65.8081 17.7258 65.6241 17.5204C65.4401 17.315 65.3021 17.0726 65.2195 16.8094C65.1368 16.5463 65.1114 16.2686 65.145 15.9948ZM68.3129 15.9948C68.3129 15.0068 67.829 14.4428 67.088 14.4428C66.347 14.4428 65.8589 15.0068 65.8589 15.9948C65.8589 16.9828 66.347 17.5468 67.088 17.5468C67.829 17.5468 68.3129 16.9828 68.3129 15.9948Z" fill="#333333"/>
<path d="M74.308 18.0904H73.595L72.648 14.8454H72.632L71.689 18.0904H70.976L69.803 13.8984H70.503L71.341 17.3084H71.357L72.304 13.8984H72.981L73.932 17.3084H73.948L74.786 13.8984H75.479L74.308 18.0904Z" fill="#333333"/>
<path d="M76.4619 13.8983H77.1229V14.5673H77.1389C77.2653 14.3285 77.4582 14.1313 77.6942 13.9997C77.9302 13.868 78.1993 13.8075 78.4689 13.8253C78.6707 13.8135 78.8726 13.846 79.0604 13.9208C79.2481 13.9955 79.4172 14.1106 79.5556 14.2579C79.694 14.4052 79.7984 14.5811 79.8613 14.7731C79.9243 14.9652 79.9443 15.1687 79.9199 15.3693V18.0903H79.2199V15.4903C79.2199 14.8133 78.9019 14.4423 78.2569 14.4423C78.105 14.4383 77.9541 14.4667 77.814 14.5255C77.674 14.5844 77.5481 14.6725 77.4448 14.7839C77.3414 14.8953 77.263 15.0274 77.2148 15.1714C77.1665 15.3155 77.1495 15.4682 77.1649 15.6193V18.0863H76.4649L76.4619 13.8983Z" fill="#333333"/>
<path d="M81.961 12.2734H81.26V18.0894H81.961V12.2734Z" fill="#333333"/>
<path d="M83.1159 15.9948C83.1576 15.6202 83.3068 15.2656 83.5456 14.9738C83.7843 14.6821 84.1025 14.4657 84.4615 14.3508C84.8205 14.2359 85.2051 14.2273 85.5689 14.3261C85.9327 14.4249 86.2601 14.6269 86.5116 14.9077C86.7632 15.1885 86.928 15.5361 86.9864 15.9085C87.0447 16.2809 86.9941 16.6623 86.8405 17.0065C86.6869 17.3508 86.4369 17.6433 86.1208 17.8486C85.8046 18.054 85.4359 18.1634 85.0589 18.1638C84.7831 18.1671 84.5099 18.1114 84.2574 18.0005C84.0049 17.8895 83.779 17.7258 83.595 17.5204C83.411 17.315 83.2731 17.0726 83.1905 16.8094C83.1078 16.5463 83.0824 16.2686 83.1159 15.9948ZM86.284 15.9948C86.284 15.0068 85.7999 14.4428 85.0589 14.4428C84.3179 14.4428 83.8299 15.0068 83.8299 15.9948C83.8299 16.9828 84.3179 17.5468 85.0589 17.5468C85.7999 17.5468 86.284 16.9828 86.284 15.9948Z" fill="#333333"/>
<path d="M87.9459 16.9051C87.9459 16.1881 88.498 15.7361 89.466 15.6801L90.6659 15.6111V15.2601C90.6659 14.7481 90.327 14.4421 89.747 14.4421C89.5322 14.4146 89.3148 14.4672 89.1364 14.5899C88.958 14.7125 88.8311 14.8967 88.7799 15.1071H88.1029C88.1273 14.9137 88.1898 14.7269 88.2866 14.5577C88.3834 14.3885 88.5127 14.24 88.667 14.1209C88.8214 14.0018 88.9977 13.9143 89.1859 13.8635C89.3742 13.8128 89.5706 13.7997 89.7639 13.8251C90.7479 13.8251 91.3639 14.3571 91.3639 15.1911V18.0911H90.699V17.3691H90.683C90.5509 17.6103 90.3561 17.8114 90.1192 17.9512C89.8823 18.0909 89.612 18.1641 89.3369 18.1631C89.1606 18.1823 88.9822 18.164 88.8135 18.1094C88.6448 18.0548 88.4895 17.9652 88.3578 17.8464C88.2261 17.7277 88.121 17.5824 88.0493 17.4202C87.9777 17.258 87.941 17.0824 87.9419 16.9051M90.663 16.4981V16.1551L89.543 16.2241C88.979 16.2601 88.656 16.5101 88.656 16.9051C88.656 17.3001 88.9909 17.5661 89.4939 17.5661C89.6414 17.5754 89.7893 17.5549 89.9287 17.5058C90.0681 17.4567 90.1962 17.3801 90.3053 17.2804C90.4144 17.1807 90.5023 17.0601 90.5637 16.9257C90.6252 16.7912 90.659 16.6458 90.663 16.4981Z" fill="#333333"/>
<path d="M92.4659 15.9944C92.4659 14.6804 93.1869 13.8254 94.2439 13.8254C94.514 13.8166 94.7813 13.8823 95.0166 14.0153C95.2519 14.1483 95.4461 14.3435 95.5779 14.5795H95.5939V12.2734H96.2939V18.0894H95.6249V17.3804H95.6129C95.481 17.6227 95.2848 17.8239 95.0459 17.9618C94.807 18.0998 94.5347 18.1692 94.2589 18.1624C93.1909 18.1624 92.4648 17.3074 92.4648 15.9934M93.1829 15.9934C93.1829 16.9444 93.6508 17.5454 94.3918 17.5454C95.1138 17.5454 95.5969 16.9324 95.5969 15.9934C95.5969 15.0544 95.1128 14.4415 94.3918 14.4415C93.6498 14.4415 93.1829 15.0414 93.1829 15.9934Z" fill="#333333"/>
<path d="M99.5571 15.9948C99.5988 15.6202 99.748 15.2656 99.9868 14.9738C100.226 14.6821 100.544 14.4657 100.903 14.3508C101.262 14.2359 101.646 14.2273 102.01 14.3261C102.374 14.4249 102.701 14.6269 102.953 14.9077C103.204 15.1885 103.369 15.5361 103.428 15.9085C103.486 16.2809 103.435 16.6623 103.282 17.0065C103.128 17.3508 102.878 17.6433 102.562 17.8486C102.246 18.054 101.877 18.1634 101.5 18.1638C101.224 18.1671 100.951 18.1114 100.698 18.0005C100.446 17.8895 100.22 17.7258 100.036 17.5204C99.8522 17.315 99.7142 17.0726 99.6315 16.8094C99.5489 16.5463 99.5235 16.2686 99.5571 15.9948ZM102.725 15.9948C102.725 15.0068 102.241 14.4428 101.5 14.4428C100.759 14.4428 100.271 15.0068 100.271 15.9948C100.271 16.9828 100.759 17.5468 101.5 17.5468C102.241 17.5468 102.725 16.9828 102.725 15.9948Z" fill="#333333"/>
<path d="M104.554 13.8983H105.215V14.5673H105.231C105.357 14.3285 105.55 14.1313 105.786 13.9997C106.022 13.868 106.291 13.8075 106.561 13.8253C106.763 13.8135 106.965 13.846 107.152 13.9208C107.34 13.9955 107.509 14.1106 107.648 14.2579C107.786 14.4052 107.89 14.5811 107.953 14.7731C108.016 14.9652 108.036 15.1687 108.012 15.3693V18.0903H107.312V15.4903C107.312 14.8133 106.994 14.4423 106.349 14.4423C106.197 14.4383 106.046 14.4667 105.906 14.5255C105.766 14.5844 105.64 14.6725 105.537 14.7839C105.433 14.8953 105.355 15.0274 105.307 15.1714C105.259 15.3155 105.242 15.4682 105.257 15.6193V18.0863H104.557L104.554 13.8983Z" fill="#333333"/>
<path d="M112.344 12.8887V13.9007H113.158V14.4767H112.344V16.9677C112.344 17.3507 112.505 17.5237 112.864 17.5237C112.961 17.5221 113.058 17.5155 113.154 17.5037V18.0887C113.008 18.1125 112.859 18.1232 112.711 18.1207C111.941 18.1207 111.643 17.8067 111.643 17.0007V14.4737H111.018V13.8977H111.643V12.8887H112.344Z" fill="#333333"/>
<path d="M114.357 12.2734H115.057V14.5665H115.073C115.198 14.3266 115.391 14.1286 115.627 13.9967C115.863 13.8649 116.133 13.805 116.403 13.8244C116.606 13.8148 116.809 13.8491 116.998 13.925C117.187 14.0009 117.357 14.1167 117.497 14.2644C117.637 14.4121 117.744 14.5882 117.809 14.7808C117.875 14.9734 117.898 15.178 117.878 15.3804V18.0894H117.178V15.5094C117.199 15.3712 117.188 15.2301 117.146 15.0966C117.105 14.9631 117.034 14.8407 116.938 14.7384C116.843 14.6362 116.726 14.5568 116.596 14.506C116.465 14.4553 116.325 14.4346 116.186 14.4454C116.03 14.4389 115.874 14.466 115.729 14.525C115.584 14.584 115.454 14.6734 115.347 14.7873C115.24 14.9011 115.159 15.0367 115.109 15.1848C115.058 15.3328 115.041 15.49 115.057 15.6454V18.0884H114.357V12.2734Z" fill="#333333"/>
<path d="M122.654 16.8892C122.563 17.2749 122.337 17.6153 122.017 17.8489C121.697 18.0826 121.304 18.1941 120.909 18.1632C120.634 18.1701 120.361 18.1173 120.109 18.0085C119.856 17.8996 119.631 17.7373 119.447 17.5327C119.263 17.3281 119.126 17.0862 119.045 16.8235C118.964 16.5608 118.942 16.2836 118.978 16.0112C118.943 15.7399 118.966 15.4643 119.045 15.2024C119.124 14.9406 119.258 14.6985 119.437 14.4921C119.617 14.2857 119.838 14.1196 120.086 14.0048C120.335 13.89 120.605 13.8292 120.878 13.8262C121.142 13.8248 121.402 13.8802 121.643 13.9885C121.883 14.0968 122.097 14.2556 122.271 14.454C122.445 14.6525 122.574 14.8859 122.649 15.1386C122.724 15.3912 122.744 15.6571 122.708 15.9182V16.1842H119.701V16.2242C119.682 16.3945 119.7 16.5668 119.754 16.7295C119.807 16.8922 119.895 17.0416 120.011 17.1676C120.127 17.2936 120.269 17.3933 120.427 17.46C120.585 17.5267 120.755 17.5588 120.926 17.5542C121.148 17.5736 121.371 17.5189 121.559 17.3986C121.747 17.2784 121.89 17.0992 121.966 16.8892H122.654ZM119.704 15.6352H121.981C121.992 15.4819 121.971 15.328 121.92 15.1831C121.869 15.0382 121.788 14.9053 121.684 14.7928C121.579 14.6802 121.452 14.5904 121.312 14.5289C121.171 14.4674 121.019 14.4355 120.865 14.4352C120.71 14.4374 120.557 14.4702 120.414 14.5318C120.272 14.5934 120.143 14.6825 120.035 14.794C119.927 14.9055 119.843 15.0372 119.786 15.1816C119.729 15.3259 119.701 15.4801 119.704 15.6352Z" fill="#333333"/>
<path d="M63.0579 22.752H64.8719L68.801 33.571H67.0389L66.049 30.6469H61.8799L60.8799 33.571H59.1179L63.0579 22.752ZM62.3309 29.2969H65.595L63.983 24.5439H63.9529L62.3309 29.2969Z" fill="#333333"/>
<path d="M70.5669 25.6821H72.1869V27.0431H72.2239C72.4457 26.5806 72.7967 26.1921 73.2345 25.9247C73.6723 25.6573 74.1781 25.5223 74.6909 25.5361C76.6999 25.5361 77.9908 27.1101 77.9908 29.6301V29.6381C77.9908 32.1501 76.6909 33.7321 74.7149 33.7321C74.2012 33.7457 73.6942 33.613 73.2532 33.3493C72.8121 33.0857 72.4551 32.702 72.2239 32.2431H72.1869V36.1941H70.5669V25.6821ZM76.3399 29.6331V29.6251C76.3399 27.9461 75.5399 26.9181 74.2709 26.9181C73.0409 26.9181 72.1789 27.9831 72.1789 29.6251V29.6331C72.1789 31.2671 73.0489 32.3331 74.2709 32.3331C75.5459 32.3331 76.3399 31.2981 76.3399 29.6331Z" fill="#333333"/>
<path d="M80.01 25.6821H81.63V27.0431H81.6671C81.8889 26.5806 82.2398 26.1921 82.6776 25.9247C83.1154 25.6573 83.6212 25.5223 84.134 25.5361C86.143 25.5361 87.434 27.1101 87.434 29.6301V29.6381C87.434 32.1501 86.134 33.7321 84.158 33.7321C83.6452 33.7458 83.1391 33.6136 82.6984 33.3509C82.2578 33.0882 81.9008 32.7058 81.669 32.2481H81.632V36.1991H80.012L80.01 25.6821ZM85.783 29.6331V29.6251C85.783 27.9461 84.9831 26.9181 83.7141 26.9181C82.4841 26.9181 81.622 27.9831 81.622 29.6251V29.6331C81.622 31.2671 82.4921 32.3331 83.7141 32.3331C84.9891 32.3331 85.783 31.2981 85.783 29.6331Z" fill="#333333"/>
<path d="M93.047 30.6902L93.04 30.5782H94.6749L94.6899 30.6782C94.8399 31.6782 95.8369 32.2982 97.2839 32.2982C98.7309 32.2982 99.646 31.6462 99.646 30.6342V30.6262C99.646 29.7562 99.0539 29.2842 97.6219 28.9692L96.4449 28.7222C94.3229 28.2722 93.296 27.2972 93.296 25.6932V25.6852C93.304 23.8412 94.931 22.5742 97.217 22.5742C99.474 22.5742 101.017 23.8042 101.131 25.6182L101.138 25.7452H99.5029L99.496 25.6452C99.346 24.6452 98.476 24.0332 97.196 24.0332C95.854 24.0412 94.996 24.6782 94.996 25.6222V25.6302C94.996 26.4402 95.611 26.9302 96.96 27.2302L98.145 27.4772C100.379 27.9492 101.339 28.8572 101.339 30.5282V30.5362C101.339 32.5082 99.78 33.7602 97.215 33.7602C94.786 33.7602 93.181 32.6052 93.046 30.7012" fill="#333333"/>
<path d="M103.877 31.4939V26.9729H102.745V25.6829H103.877V23.6289H105.534V25.6829H107.011V26.9729H105.534V31.3959C105.534 32.1959 105.894 32.4379 106.576 32.4379C106.722 32.4373 106.867 32.4272 107.011 32.4079V33.6599C106.738 33.7032 106.462 33.7256 106.186 33.7269C104.627 33.7269 103.877 33.0669 103.877 31.4929" fill="#333333"/>
<path d="M108.574 29.6272V29.6122C108.574 27.0932 110.066 25.5332 112.308 25.5332C114.55 25.5332 116.057 27.0852 116.057 29.6122V29.6272C116.057 32.1692 114.573 33.7272 112.316 33.7272C110.059 33.7272 108.574 32.1602 108.574 29.6272ZM114.401 29.6272V29.6122C114.401 27.8882 113.576 26.8902 112.309 26.8902C111.064 26.8902 110.232 27.8902 110.232 29.6122V29.6272C110.232 31.3742 111.057 32.3712 112.324 32.3712C113.591 32.3712 114.401 31.3712 114.401 29.6272Z" fill="#333333"/>
<path d="M118.077 25.6832H119.697V27.0332H119.734C119.816 26.612 120.042 26.2324 120.373 25.9589C120.703 25.6854 121.119 25.5349 121.548 25.5332C121.737 25.5362 121.925 25.5563 122.11 25.5932V27.1002C121.874 27.0318 121.629 27.0015 121.383 27.0102C121.144 27.0003 120.905 27.0431 120.684 27.1355C120.463 27.2279 120.265 27.3677 120.104 27.545C119.944 27.7224 119.824 27.9329 119.753 28.1617C119.682 28.3905 119.663 28.632 119.696 28.8692V33.5692H118.076L118.077 25.6832Z" fill="#333333"/>
<path d="M123.193 29.6572V29.6492C123.193 27.1822 124.618 25.5332 126.829 25.5332C129.04 25.5332 130.398 27.1232 130.398 29.4922V30.0392H124.812C124.842 31.5312 125.659 32.4012 126.949 32.4012C127.325 32.4334 127.702 32.3456 128.026 32.1503C128.349 31.955 128.602 31.6623 128.749 31.3142L128.771 31.2542H130.308L130.293 31.3362C130.099 32.0678 129.654 32.708 129.036 33.1452C128.418 33.5823 127.667 33.7887 126.912 33.7282C124.595 33.7282 123.193 32.1462 123.193 29.6572ZM124.835 28.8922H128.794C128.659 27.5272 127.894 26.8602 126.837 26.8602C126.572 26.8618 126.31 26.9156 126.066 27.0187C125.822 27.1218 125.601 27.272 125.415 27.4608C125.229 27.6496 125.083 27.8732 124.983 28.1189C124.884 28.3645 124.835 28.6273 124.837 28.8922" fill="#333333"/>
<path d="M44.693 20.6086C43.8469 21.1382 43.1407 21.8636 42.634 22.7236C42.2698 23.4352 42.0828 24.2242 42.089 25.0236C42.0814 25.6361 42.191 26.2443 42.412 26.8156C42.6366 27.3731 42.9448 27.893 43.326 28.3576C43.8825 28.9666 44.5541 29.4594 45.302 29.8076C44.8969 30.9452 44.3377 32.0219 43.64 33.0076C43.0835 33.881 42.395 34.6629 41.599 35.3256C41.1069 35.7367 40.4944 35.9764 39.854 36.0086C39.2369 35.9699 38.6309 35.8261 38.062 35.5836L37.711 35.4546L37.138 35.2146C36.7002 35.0871 36.246 35.0248 35.79 35.0296C35.2087 35.0441 34.6339 35.1567 34.09 35.3626L33.647 35.5286L33.093 35.7506C32.6698 35.9193 32.2187 36.0072 31.763 36.0096C30.8297 36.0096 29.826 35.3539 28.752 34.0426C27.7087 32.7803 26.8873 31.35 26.323 29.8126C25.7831 28.3489 25.5048 26.8017 25.501 25.2416C25.4383 23.4402 26.0398 21.6786 27.191 20.2916C27.757 19.6367 28.464 19.1186 29.2591 18.7764C30.0541 18.4341 30.9163 18.2766 31.781 18.3156C32.4591 18.311 33.1311 18.443 33.757 18.7036L34.182 18.8696L34.625 19.0546C34.9218 19.1912 35.2411 19.2726 35.567 19.2946C35.9212 19.2938 36.2721 19.2259 36.601 19.0946L37.192 18.8726L37.617 18.7066C38.3508 18.4404 39.1266 18.3089 39.907 18.3186C40.8291 18.2924 41.7441 18.4865 42.5761 18.8847C43.4082 19.283 44.1332 19.874 44.691 20.6086M40 11.8086C40.0247 12.0793 40.037 12.2886 40.037 12.4366C40.0185 13.2681 39.7897 14.0814 39.372 14.8006C38.9672 15.5714 38.369 16.2238 37.636 16.6936C36.9293 17.141 36.1085 17.375 35.272 17.3676C35.2418 17.1534 35.2234 16.9378 35.217 16.7216C35.2368 15.9976 35.4368 15.2899 35.799 14.6626C36.1863 13.943 36.725 13.3159 37.378 12.8246C38.0376 12.3223 38.8119 11.9924 39.631 11.8646C39.705 11.8526 39.831 11.8336 40 11.8096" fill="#333333"/>
</svg>
