<svg width="156" height="48" viewBox="0 0 156 48" fill="none" xmlns="http://www.w3.org/2000/svg">
<path d="M144.542 48.002H11.458C9.95376 48.0025 8.46415 47.7067 7.07422 47.1316C5.68429 46.5564 4.42141 45.713 3.35742 44.6497C2.29344 43.5863 1.44933 42.3238 0.873291 40.9343C0.297247 39.5447 0.000393896 38.0552 0 36.551V11.451C0.000393896 9.94676 0.297247 8.45732 0.873291 7.06774C1.44933 5.67816 2.29344 4.41566 3.35742 3.35233C4.42141 2.28899 5.68429 1.44565 7.07422 0.870454C8.46415 0.295259 9.95376 -0.00052467 11.458 6.98637e-07H144.542C147.579 0.000530964 150.492 1.20736 152.64 3.3551C154.788 5.50283 155.995 8.41564 155.995 11.453V36.553C155.994 39.5909 154.786 42.5039 152.637 44.6514C150.489 46.7988 147.575 48.0048 144.537 48.004" fill="#F0F5F7"/>
<path d="M58.6562 15.9443C58.672 16.2586 58.6234 16.5729 58.5137 16.8679C58.404 17.163 58.2353 17.4325 58.0181 17.6603C57.7746 17.9127 57.4806 18.1109 57.1553 18.2419C56.8299 18.3729 56.4806 18.4337 56.1301 18.4203C55.7732 18.4272 55.4186 18.3628 55.0869 18.231C54.7552 18.0992 54.4531 17.9026 54.1982 17.6526C53.9434 17.4026 53.741 17.1044 53.6028 16.7752C53.4646 16.4461 53.3933 16.0927 53.3933 15.7358C53.3933 15.3788 53.4646 15.0254 53.6028 14.6963C53.741 14.3672 53.9434 14.0689 54.1982 13.819C54.4531 13.569 54.7552 13.3724 55.0869 13.2406C55.4186 13.1087 55.7732 13.0444 56.1301 13.0513C56.4928 13.0501 56.8518 13.1232 57.1851 13.2663C57.493 13.3922 57.7671 13.5889 57.9851 13.8403L57.5332 14.2923C57.3611 14.0896 57.1446 13.9292 56.9006 13.8234C56.6567 13.7176 56.3918 13.6693 56.1262 13.6823C55.7908 13.6843 55.4609 13.7684 55.1655 13.9274C54.8701 14.0864 54.6181 14.3153 54.4316 14.5941C54.2452 14.873 54.13 15.1933 54.0959 15.527C54.0619 15.8607 54.1102 16.1977 54.2366 16.5085C54.3629 16.8192 54.5633 17.0943 54.8206 17.3096C55.0778 17.5249 55.384 17.6739 55.7122 17.7435C56.0403 17.8132 56.3804 17.8013 56.7029 17.7091C57.0254 17.6168 57.3206 17.4469 57.5623 17.2143C57.826 16.9301 57.9789 16.5607 57.9932 16.1733H56.1272V15.5563H58.6172C58.6407 15.6843 58.6527 15.8141 58.6531 15.9443" fill="#333333"/>
<path d="M62.605 13.799H60.2642V15.429H62.375V16.046H60.2642V17.676H62.605V18.308H59.605V13.168H62.605V13.799Z" fill="#333333"/>
<path d="M65.3889 18.308H64.728V13.8H63.292V13.168H66.824V13.8H65.3879L65.3889 18.308Z" fill="#333333"/>
<path d="M70.0401 13.168H69.3801V18.308H70.0401V13.168Z" fill="#333333"/>
<path d="M72.9702 18.308H72.3091V13.8H70.873V13.168H74.405V13.8H72.9692L72.9702 18.308Z" fill="#333333"/>
<path d="M81.0962 17.6425C80.5959 18.1413 79.9182 18.4214 79.2117 18.4214C78.5052 18.4214 77.8275 18.1413 77.3271 17.6425C76.841 17.1271 76.5703 16.4454 76.5703 15.737C76.5703 15.0285 76.841 14.3468 77.3271 13.8315C77.5742 13.584 77.8677 13.3877 78.1907 13.2537C78.5137 13.1197 78.86 13.0508 79.2097 13.0508C79.5594 13.0508 79.9055 13.1197 80.2285 13.2537C80.5515 13.3877 80.845 13.584 81.092 13.8315C81.5791 14.3458 81.8506 15.0272 81.8506 15.7355C81.8506 16.4438 81.5791 17.1252 81.092 17.6395M77.811 17.2095C78.1815 17.5793 78.6836 17.787 79.207 17.787C79.7305 17.787 80.2326 17.5793 80.603 17.2095C80.9708 16.8061 81.1748 16.2799 81.1748 15.734C81.1748 15.1881 80.9708 14.6619 80.603 14.2585C80.2326 13.8887 79.7305 13.681 79.207 13.681C78.6836 13.681 78.1815 13.8887 77.811 14.2585C77.4439 14.6622 77.2405 15.1883 77.2405 15.734C77.2405 16.2797 77.4439 16.8058 77.811 17.2095Z" fill="#333333"/>
<path d="M82.7759 18.308V13.168H83.5759L86.0759 17.168H86.104L86.0759 16.177V13.169H86.7371V18.309H86.0481L83.4351 14.117H83.406L83.4351 15.107V18.307L82.7759 18.308Z" fill="#333333"/>
<path d="M76.4021 25.8031C75.4314 25.7942 74.4965 26.1699 73.802 26.8481C73.4555 27.2022 73.1835 27.6222 73.002 28.0832C72.8204 28.5442 72.7329 29.037 72.7449 29.5323C72.7569 30.0277 72.8681 30.5156 73.0718 30.9673C73.2755 31.4189 73.5678 31.8252 73.9312 32.1621C74.5952 32.7421 75.4421 33.0699 76.3235 33.0882C77.2049 33.1065 78.0647 32.814 78.7522 32.2621C79.1666 31.92 79.4991 31.4894 79.7251 31.0019C79.9511 30.5144 80.0649 29.9824 80.0581 29.4451C80.0655 28.9635 79.9758 28.4853 79.7944 28.0391C79.6131 27.5929 79.3437 27.1877 79.0025 26.8478C78.6612 26.5078 78.255 26.2401 77.8081 26.0604C77.3612 25.8808 76.8827 25.7929 76.4011 25.8021M76.4011 31.6531C75.9576 31.6848 75.5148 31.5823 75.1304 31.3588C74.746 31.1354 74.4378 30.8013 74.2459 30.4002C74.054 29.9991 73.9872 29.5495 74.0545 29.11C74.1217 28.6705 74.3198 28.2614 74.6228 27.936C74.9258 27.6106 75.3198 27.3839 75.7534 27.2856C76.1871 27.1872 76.6402 27.2217 77.054 27.3846C77.4677 27.5474 77.8227 27.8311 78.073 28.1986C78.3233 28.5661 78.4571 29.0005 78.457 29.4451C78.4705 29.7259 78.4277 30.0065 78.3311 30.2705C78.2344 30.5345 78.0859 30.7765 77.8943 30.9822C77.7027 31.1879 77.4718 31.3533 77.2153 31.4685C76.9589 31.5837 76.6822 31.6465 76.4011 31.6531ZM68.4231 25.8021C67.6982 25.7991 66.9883 26.0076 66.3801 26.4021C65.9317 26.7073 65.5561 27.1075 65.2798 27.5742C65.0035 28.041 64.8335 28.563 64.7818 29.1029C64.73 29.6428 64.7979 30.1875 64.9805 30.6983C65.1631 31.2091 65.4558 31.6733 65.8381 32.0581C66.476 32.6654 67.3071 33.0292 68.186 33.0857C69.065 33.1421 69.9357 32.8878 70.646 32.3671C71.0975 32.0279 71.4627 31.5869 71.7117 31.0801C71.9607 30.5732 72.0866 30.0148 72.0791 29.4501C72.0828 28.792 71.9102 28.1449 71.5791 27.5761C71.2538 27.0296 70.7902 26.5783 70.2351 26.2678C69.6801 25.9573 69.053 25.7984 68.417 25.8071M68.417 31.6581C67.9735 31.6898 67.5309 31.5873 67.1465 31.3638C66.7621 31.1404 66.4539 30.8063 66.262 30.4052C66.0701 30.0041 66.0033 29.5545 66.0706 29.115C66.1378 28.6755 66.3357 28.2664 66.6387 27.941C66.9417 27.6156 67.3357 27.3889 67.7693 27.2906C68.2029 27.1922 68.6563 27.2267 69.0701 27.3896C69.4838 27.5524 69.8389 27.8361 70.0891 28.2036C70.3394 28.5711 70.4732 29.0055 70.4732 29.4501C70.4866 29.7309 70.4436 30.0115 70.3469 30.2755C70.2503 30.5395 70.1017 30.7815 69.9102 30.9872C69.7186 31.1929 69.4879 31.3583 69.2315 31.4735C68.975 31.5887 68.698 31.6515 68.417 31.6581ZM58.927 26.9241V28.4701H62.6272C62.5738 29.1951 62.2771 29.8808 61.7852 30.4161C61.4145 30.794 60.9687 31.09 60.4766 31.285C59.9845 31.48 59.4569 31.5696 58.928 31.5481C57.8484 31.5313 56.8188 31.0906 56.0613 30.3212C55.3038 29.5518 54.8792 28.5153 54.8792 27.4356C54.8792 26.3559 55.3038 25.3194 56.0613 24.55C56.8188 23.7806 57.8484 23.3399 58.928 23.3231C59.9659 23.3084 60.9678 23.7037 61.7161 24.4231L62.8062 23.3331C62.2961 22.8282 61.6903 22.4303 61.0244 22.1626C60.3585 21.8949 59.6456 21.7628 58.928 21.7741C57.8996 21.7741 56.8902 22.0503 56.0051 22.5741C55.1376 23.0725 54.4194 23.7942 53.9253 24.6643C53.4312 25.5343 53.179 26.5208 53.1953 27.5213C53.2117 28.5217 53.4958 29.4995 54.0181 30.3529C54.5403 31.2063 55.2817 31.9043 56.1651 32.3741C57.0114 32.8402 57.9618 33.0847 58.928 33.0851C59.6608 33.1155 60.3918 32.9897 61.0723 32.7161C61.7528 32.4425 62.3672 32.0273 62.875 31.4981C63.7767 30.5141 64.2575 29.2161 64.2141 27.8821C64.2176 27.5582 64.1898 27.2347 64.1311 26.9161H58.9312L58.927 26.9241ZM97.739 28.1241C97.5764 27.6064 97.2891 27.1367 96.9024 26.7561C96.5156 26.3756 96.0412 26.0959 95.521 25.9417C95.0008 25.7875 94.4506 25.7636 93.919 25.8719C93.3873 25.9803 92.8906 26.2176 92.4722 26.5631C92.0549 26.9169 91.7224 27.3599 91.4993 27.8594C91.2762 28.3589 91.1681 28.9022 91.1831 29.4491C91.1726 29.9281 91.2586 30.4043 91.4363 30.8493C91.6139 31.2943 91.8795 31.6989 92.2171 32.0389C92.5546 32.379 92.9573 32.6475 93.4009 32.8284C93.8445 33.0094 94.32 33.0991 94.7991 33.0921C95.3993 33.0954 95.9909 32.9495 96.5208 32.6676C97.0507 32.3857 97.5025 31.9766 97.8352 31.4771L96.593 30.6491C96.4069 30.958 96.1439 31.2133 95.8294 31.3898C95.5149 31.5663 95.1597 31.6581 94.7991 31.6561C94.4283 31.6708 94.0616 31.5737 93.7466 31.3776C93.4315 31.1815 93.1825 30.8953 93.032 30.5561L97.9041 28.5411L97.739 28.1241ZM92.771 29.3391C92.7541 29.0743 92.7903 28.8089 92.877 28.5582C92.9637 28.3074 93.0993 28.0765 93.2761 27.8787C93.453 27.681 93.6673 27.5204 93.9068 27.4062C94.1462 27.2921 94.4062 27.2268 94.6712 27.2141C94.9475 27.196 95.223 27.2597 95.4634 27.3972C95.7038 27.5346 95.8986 27.7398 96.0232 27.9871L94.323 28.6941L92.771 29.3391ZM88.8101 32.8721H90.4102V22.1591H88.8101V32.8721ZM86.188 26.6201H86.1331C85.8897 26.3557 85.5927 26.1463 85.262 26.0059C84.9312 25.8656 84.5743 25.7974 84.2151 25.8061C83.3679 25.8168 82.555 26.1426 81.9351 26.7201C81.5235 27.0928 81.2015 27.5536 80.9929 28.0682C80.7844 28.5828 80.6948 29.1378 80.7307 29.6919C80.7667 30.246 80.9271 30.7848 81.2005 31.2681C81.4738 31.7514 81.8528 32.1667 82.3091 32.4831C82.8676 32.8749 83.532 33.0876 84.2141 33.0931C84.5748 33.1027 84.9332 33.0335 85.2644 32.8905C85.5956 32.7475 85.8917 32.5341 86.1321 32.2651H86.187V32.7891C86.187 34.1831 85.4422 34.9281 84.2412 34.9281C83.8408 34.9182 83.4523 34.7893 83.1255 34.5577C82.7987 34.3262 82.5481 34.0025 82.406 33.6281L81.0122 34.2081C81.2749 34.8477 81.7223 35.3943 82.2976 35.7779C82.8729 36.1615 83.5498 36.3645 84.2412 36.3611C86.1182 36.3611 87.7051 35.2611 87.7051 32.5611V26.0191H86.187L86.188 26.6201ZM84.353 31.6571C83.7999 31.61 83.2847 31.3569 82.9092 30.9481C82.5337 30.5392 82.3252 30.0042 82.3252 29.4491C82.3252 28.8939 82.5337 28.359 82.9092 27.9501C83.2847 27.5413 83.7999 27.2882 84.353 27.2411C84.8901 27.3098 85.3837 27.5719 85.7415 27.9783C86.0992 28.3848 86.2966 28.9077 86.2966 29.4491C86.2966 29.9905 86.0992 30.5134 85.7415 30.9198C85.3837 31.3263 84.8901 31.5884 84.353 31.6571ZM105.238 22.1621H101.408V32.8711H103.008V28.8141H105.24C105.747 28.8161 106.248 28.7129 106.713 28.511C107.178 28.3091 107.596 28.0129 107.94 27.6411C108.46 27.0501 108.748 26.2911 108.752 25.504C108.756 24.717 108.475 23.9551 107.961 23.3591C107.617 22.9795 107.196 22.6765 106.728 22.4698C106.259 22.2631 105.751 22.1572 105.239 22.1591M105.28 27.3201H103.007V23.6491H105.28C105.525 23.6434 105.768 23.6866 105.996 23.7763C106.224 23.866 106.431 24.0003 106.606 24.1713C106.781 24.3423 106.92 24.5466 107.015 24.7721C107.11 24.9976 107.159 25.2399 107.159 25.4846C107.159 25.7293 107.11 25.9715 107.015 26.1971C106.92 26.4226 106.781 26.6269 106.606 26.7979C106.431 26.9689 106.224 27.1032 105.996 27.1929C105.768 27.2825 105.525 27.3258 105.28 27.3201ZM115.158 25.7821C114.575 25.7478 113.994 25.8847 113.488 26.1759C112.981 26.467 112.57 26.8998 112.306 27.4211L113.725 28.0131C113.866 27.7545 114.079 27.5424 114.338 27.403C114.597 27.2636 114.892 27.2028 115.185 27.2281C115.591 27.1885 115.995 27.3113 116.311 27.5696C116.626 27.8279 116.826 28.2007 116.866 28.6061V28.7161C116.353 28.4435 115.78 28.3016 115.199 28.3031C114.549 28.2973 113.909 28.4548 113.336 28.7611C112.995 28.9302 112.703 29.185 112.489 29.5008C112.276 29.8166 112.148 30.1823 112.118 30.5623C112.089 30.9423 112.159 31.3234 112.321 31.6684C112.483 32.0133 112.732 32.3103 113.043 32.5301C113.548 32.8879 114.153 33.077 114.772 33.0701C115.175 33.0938 115.576 33.0091 115.935 32.825C116.293 32.6408 116.596 32.3639 116.811 32.0231H116.866V32.8501H118.409V28.7451C118.43 28.2589 118.322 27.7758 118.095 27.3452C117.869 26.9145 117.532 26.5518 117.119 26.2941C116.526 25.9446 115.847 25.7666 115.158 25.7821ZM114.965 31.6521C114.441 31.6521 113.711 31.3901 113.711 30.7431C113.711 29.9161 114.62 29.5991 115.406 29.5991C115.916 29.5855 116.42 29.7091 116.866 29.9571C116.808 30.4214 116.583 30.8488 116.233 31.1604C115.884 31.472 115.433 31.6466 114.965 31.6521ZM124.031 26.0171L123.272 27.9391L122.198 30.6601H122.143L120.243 26.0171H118.523L119.898 29.1471L121.374 32.5061L119.748 36.1161H121.415L124.533 28.9521L125.81 26.0171H124.031ZM109.631 32.8681H111.231V22.1601H109.631V32.8681Z" fill="#333333"/>
<mask id="mask0_8688_45657" style="mask-type:luminance" maskUnits="userSpaceOnUse" x="26" y="12" width="16" height="13">
<path d="M26.5271 13.1695L37.3081 24.0135L41.0752 20.2655L28.345 12.7965C28.1332 12.6705 27.8915 12.6038 27.645 12.6035C27.4272 12.6042 27.2125 12.6557 27.0181 12.754C26.8236 12.8523 26.6549 12.9945 26.5251 13.1695" fill="white"/>
</mask>
<g mask="url(#mask0_8688_45657)">
<path d="M32.3892 5.4686L20.9302 19.416L35.2122 31.1499L46.6711 17.2025L32.3892 5.4686Z" fill="url(#paint0_linear_8688_45657)"/>
</g>
<mask id="mask1_8688_45657" style="mask-type:luminance" maskUnits="userSpaceOnUse" x="26" y="13" width="12" height="22">
<path d="M26.2581 13.989V33.971C26.2566 34.2537 26.3423 34.53 26.5039 34.762L37.3079 24.012L26.5269 13.168C26.3506 13.4056 26.2564 13.6931 26.2581 13.989Z" fill="white"/>
</mask>
<g mask="url(#mask1_8688_45657)">
<path d="M37.3077 13.102L26.1309 13.168L26.2586 34.8276L37.4354 34.7617L37.3077 13.102Z" fill="url(#paint1_linear_8688_45657)"/>
</g>
<mask id="mask2_8688_45657" style="mask-type:luminance" maskUnits="userSpaceOnUse" x="37" y="20" width="10" height="8">
<path d="M37.3081 24.0146L41.0081 27.7386L45.3711 25.1786C45.5795 25.0563 45.7524 24.8817 45.8726 24.672C45.9927 24.4623 46.0559 24.2248 46.0559 23.9831C46.0559 23.7415 45.9927 23.504 45.8726 23.2943C45.7524 23.0846 45.5795 22.9099 45.3711 22.7876L41.071 20.2656L37.3081 24.0146Z" fill="white"/>
</mask>
<g mask="url(#mask2_8688_45657)">
<path d="M37.3626 19.5663L36.7251 27.6934L46.2309 28.439L46.8684 20.3119L37.3626 19.5663Z" fill="url(#paint2_linear_8688_45657)"/>
</g>
<mask id="mask3_8688_45657" style="mask-type:luminance" maskUnits="userSpaceOnUse" x="26" y="24" width="16" height="12">
<path d="M26.5039 34.7647C26.704 35.0509 27.0049 35.2511 27.3462 35.3253C27.6875 35.3994 28.0441 35.3421 28.345 35.1648L41.011 27.7338L37.311 24.0098L26.5039 34.7647Z" fill="white"/>
</mask>
<g mask="url(#mask3_8688_45657)">
<path d="M36.5704 17.3305L21.1841 27.5449L30.9401 42.2407L46.3265 32.0262L36.5704 17.3305Z" fill="url(#paint3_linear_8688_45657)"/>
</g>
<defs>
<linearGradient id="paint0_linear_8688_45657" x1="-77.4524" y1="208.113" x2="-77.3951" y2="208.043" gradientUnits="userSpaceOnUse">
<stop stop-color="#32A071"/>
<stop offset="0.068" stop-color="#2DA771"/>
<stop offset="0.476" stop-color="#15CF74"/>
<stop offset="0.801" stop-color="#06E775"/>
<stop offset="1" stop-color="#00F076"/>
</linearGradient>
<linearGradient id="paint1_linear_8688_45657" x1="-183.301" y1="54.1069" x2="-183.211" y2="54.1064" gradientUnits="userSpaceOnUse">
<stop stop-color="#00A0FF"/>
<stop offset="0.007" stop-color="#00A1FF"/>
<stop offset="0.26" stop-color="#00BEFF"/>
<stop offset="0.512" stop-color="#00D2FF"/>
<stop offset="0.76" stop-color="#00DFFF"/>
<stop offset="1" stop-color="#00E3FF"/>
</linearGradient>
<linearGradient id="paint2_linear_8688_45657" x1="52.9163" y1="250.847" x2="52.9226" y2="250.766" gradientUnits="userSpaceOnUse">
<stop stop-color="#FFE000"/>
<stop offset="0.409" stop-color="#FFBD00"/>
<stop offset="0.775" stop-color="#FFA500"/>
<stop offset="1" stop-color="#FF9C00"/>
</linearGradient>
<linearGradient id="paint3_linear_8688_45657" x1="-134.462" y1="169.111" x2="-134.385" y2="169.06" gradientUnits="userSpaceOnUse">
<stop stop-color="#FF3A44"/>
<stop offset="1" stop-color="#C31162"/>
</linearGradient>
</defs>
</svg>
