<svg width="73" height="73" viewBox="0 0 73 73" fill="none" xmlns="http://www.w3.org/2000/svg">
<path d="M29.2778 21.8111C29.914 20.0474 31.1699 18.5602 32.8229 17.6129C34.476 16.6656 36.4195 16.3193 38.3092 16.6354C40.199 16.9515 41.9131 17.9095 43.1479 19.3398C44.3826 20.7701 45.0584 22.5804 45.0556 24.45C45.0556 29.7278 36.9366 32.3668 36.9366 32.3668M37.0413 42.9303H37.0774M18.4444 57.0151V65.2388C18.4444 67.1151 18.4444 68.0532 18.8389 68.535C19.1819 68.9541 19.7021 69.1978 20.2519 69.1973C20.8842 69.1966 21.6355 68.6106 23.138 67.4385L31.7522 60.7188C33.5119 59.346 34.3917 58.6597 35.3715 58.1716C36.2407 57.7386 37.166 57.4221 38.1222 57.2307C39.1999 57.0151 40.3267 57.0151 42.5802 57.0151H51.6667C57.7339 57.0151 60.7675 57.0151 63.0849 55.8637C65.1233 54.8509 66.7806 53.2349 67.8192 51.2473C69 48.9876 69 46.0295 69 40.1134V21.099C69 15.1828 69 12.2247 67.8192 9.96507C66.7806 7.97741 65.1233 6.36139 63.0849 5.34862C60.7675 4.19727 57.7339 4.19727 51.6667 4.19727H21.3333C15.2661 4.19727 12.2325 4.19727 9.9151 5.34862C7.87668 6.36139 6.21939 7.97741 5.18076 9.96507C4 12.2247 4 15.1828 4 21.099V42.9303C4 46.2049 4 47.8422 4.36914 49.1856C5.37086 52.831 8.29096 55.6783 12.0295 56.6551C13.4071 57.0151 15.0862 57.0151 18.4444 57.0151Z" stroke="black" stroke-width="6.5" stroke-linecap="round" stroke-linejoin="round"/>
</svg>
