<svg width="28" height="28" viewBox="0 0 28 28" fill="none" xmlns="http://www.w3.org/2000/svg">
<path d="M14.1983 25.584H14.2269C18.6495 25.584 22.2493 21.9855 22.2493 17.5617V10.6854C22.2493 6.28345 18.6656 2.69288 14.2487 2.66309H14.1799C9.77911 2.6883 6.20459 6.28116 6.20459 10.6854V17.5617C6.20459 21.9855 9.79058 25.584 14.1983 25.584ZM8.49669 10.6854C8.49879 9.16929 9.10083 7.7156 10.1713 6.64193C11.2417 5.56825 12.6936 4.96184 14.2097 4.95518C17.3786 4.96206 19.9572 7.53264 19.9572 10.6854V17.5617C19.9572 20.7214 17.3866 23.292 14.2269 23.292H14.1983C11.0019 23.292 8.49669 20.7752 8.49669 17.5617V10.6854Z" fill="#040E53"/>
<path d="M13.0808 7.24805H15.3729V14.1243H13.0808V7.24805Z" fill="#040E53"/>
</svg>
