<svg width="92" height="69" viewBox="0 0 92 69" fill="none" xmlns="http://www.w3.org/2000/svg">
<g filter="url(#filter0_dd_8409_50673)">
<rect x="12.2461" y="7" width="66.75" height="43" rx="7.16418" fill="#FFF5E5"/>
<rect x="12.0968" y="6.85075" width="67.0485" height="43.2985" rx="7.31343" stroke="#D6DCE5" stroke-width="0.298507"/>
<path fill-rule="evenodd" clip-rule="evenodd" d="M60.8107 36.0507C56.6456 39.1244 50.6076 40.7587 45.4076 40.7587C38.1201 40.7587 31.5578 38.0649 26.5923 33.5814C26.2025 33.2292 26.5497 32.7484 27.0187 33.0215C32.376 36.1387 39.0016 38.0164 45.8449 38.0164C50.4612 38.0164 55.5355 37.0588 60.2052 35.0782C60.9087 34.7784 61.4993 35.5412 60.8107 36.0507ZM62.5431 34.0721C63.0763 34.7547 61.9505 37.5653 61.4479 38.8207C61.2955 39.2006 61.622 39.3539 61.9663 39.066C64.2002 37.1973 64.778 33.2807 64.3209 32.7148C63.8668 32.1539 59.9609 31.6711 57.5766 33.345C57.2095 33.6022 57.2728 33.9583 57.6795 33.9089C59.022 33.7486 62.0108 33.3895 62.5431 34.0721Z" fill="#FF9900"/>
<path fill-rule="evenodd" clip-rule="evenodd" d="M56.513 29.0396L60.8483 18.006C60.9393 17.7825 60.9858 17.6252 60.9858 17.5332C60.9858 17.3759 60.8938 17.2967 60.7098 17.2967H59.6067C59.3959 17.2967 59.2525 17.3304 59.1724 17.3956C59.0932 17.4619 59.015 17.6064 58.9359 17.8299L56.2755 25.4742L53.5173 17.8299C53.4381 17.6064 53.36 17.4619 53.2808 17.3956C53.2017 17.3304 53.0572 17.2967 52.8465 17.2967H51.6642C51.4802 17.2967 51.3882 17.3759 51.3882 17.5332C51.3882 17.6252 51.4337 17.7825 51.5257 18.006L55.3288 27.3845L54.9548 28.3896C54.7312 29.0208 54.4819 29.4541 54.2058 29.6905C53.9298 29.927 53.542 30.0447 53.0434 30.0447C52.8198 30.0447 52.6427 30.0308 52.5121 30.0051C52.3805 29.9794 52.2816 29.9656 52.2163 29.9656C52.0194 29.9656 51.9205 30.0902 51.9205 30.3395V30.852C51.9205 31.036 51.9531 31.1705 52.0194 31.2556C52.0847 31.3407 52.1896 31.404 52.335 31.4426C52.6625 31.5336 53.0374 31.5811 53.4579 31.5811C54.2068 31.5811 54.8143 31.3842 55.2803 30.9895C55.7482 30.5967 56.1588 29.9458 56.513 29.0396Z" fill="#232F3E"/>
<path fill-rule="evenodd" clip-rule="evenodd" d="M40.3293 20.0084C40.1384 19.3713 39.8663 18.8291 39.5111 18.383C39.1569 17.9368 38.7236 17.5945 38.2111 17.3581C37.6996 17.1216 37.1278 17.0039 36.4966 17.0039C35.906 17.0039 35.3272 17.1147 34.7633 17.3383C34.1983 17.5619 33.6661 17.8903 33.1665 18.3236L33.0685 17.6925C33.0289 17.4303 32.8776 17.2987 32.6144 17.2987H31.7477C31.4856 17.2987 31.354 17.4303 31.354 17.6925V30.9529C31.354 31.216 31.4856 31.3466 31.7477 31.3466H32.9102C33.1734 31.3466 33.304 31.215 33.304 30.9529V26.3428C34.1578 27.1174 35.1758 27.5052 36.3581 27.5052C37.0012 27.5052 37.5859 27.3766 38.1112 27.1214C38.6365 26.8651 39.0827 26.507 39.4508 26.047C39.8188 25.588 40.1047 25.03 40.3075 24.3721C40.5114 23.7152 40.6133 22.9792 40.6133 22.165C40.6152 21.3647 40.5193 20.6455 40.3293 20.0084ZM35.906 25.9283C35.0116 25.9283 34.1449 25.6137 33.305 24.9825V19.486C34.1321 18.8816 35.0126 18.5798 35.9455 18.5798C37.7323 18.5798 38.6257 19.8085 38.6257 22.264C38.6247 24.7075 37.7184 25.9283 35.906 25.9283Z" fill="#232F3E"/>
<path fill-rule="evenodd" clip-rule="evenodd" d="M49.2146 17.7775C48.623 17.2661 47.7039 17.0098 46.4563 17.0098C45.839 17.0098 45.2216 17.0662 44.6043 17.177C43.986 17.2888 43.4675 17.4362 43.0471 17.6202C42.8898 17.6865 42.7839 17.7548 42.7315 17.827C42.679 17.8992 42.6523 18.0278 42.6523 18.2108V18.7421C42.6523 18.9785 42.7374 19.0972 42.9086 19.0972C42.961 19.0972 43.0174 19.0873 43.0767 19.0676C43.1361 19.0478 43.1856 19.0319 43.2242 19.0181C44.2363 18.7164 45.2009 18.565 46.121 18.565C46.9085 18.565 47.4605 18.7094 47.7761 18.9993C48.0917 19.2882 48.249 19.7868 48.249 20.4961V21.796C47.3299 21.5724 46.5019 21.4616 45.7658 21.4616C44.6102 21.4616 43.6911 21.7475 43.0075 22.3184C42.3248 22.8892 41.9825 23.6549 41.9825 24.6135C41.9825 25.5078 42.2586 26.2191 42.8106 26.7514C43.3617 27.2836 44.1106 27.5487 45.0564 27.5487C45.6213 27.5487 46.1892 27.4369 46.7611 27.2144C47.3329 26.9918 47.8543 26.6752 48.3272 26.2686L48.4261 26.9186C48.4657 27.1679 48.6101 27.2925 48.8605 27.2925H49.7073C49.9695 27.2925 50.1021 27.1609 50.1021 26.8988V20.1617C50.1011 19.0844 49.8053 18.29 49.2146 17.7775ZM48.249 25.0686C47.8157 25.397 47.3626 25.6463 46.8897 25.8175C46.4168 25.9886 45.9637 26.0737 45.5303 26.0737C45.0178 26.0737 44.6241 25.9392 44.3481 25.6701C44.072 25.401 43.9345 25.0171 43.9345 24.5176C43.9345 23.3749 44.6765 22.8031 46.1605 22.8031C46.5019 22.8031 46.8531 22.8269 47.2142 22.8724C47.5753 22.9189 47.9206 22.9812 48.249 23.0593V25.0686Z" fill="#232F3E"/>
</g>
<defs>
<filter id="filter0_dd_8409_50673" x="0.00696659" y="0.731022" width="91.2283" height="67.4783" filterUnits="userSpaceOnUse" color-interpolation-filters="sRGB">
<feFlood flood-opacity="0" result="BackgroundImageFix"/>
<feColorMatrix in="SourceAlpha" type="matrix" values="0 0 0 0 0 0 0 0 0 0 0 0 0 0 0 0 0 0 127 0" result="hardAlpha"/>
<feOffset dy="0.597015"/>
<feGaussianBlur stdDeviation="2.98507"/>
<feColorMatrix type="matrix" values="0 0 0 0 0.717647 0 0 0 0 0.717647 0 0 0 0 0.717647 0 0 0 0.08 0"/>
<feBlend mode="normal" in2="BackgroundImageFix" result="effect1_dropShadow_8409_50673"/>
<feColorMatrix in="SourceAlpha" type="matrix" values="0 0 0 0 0 0 0 0 0 0 0 0 0 0 0 0 0 0 127 0" result="hardAlpha"/>
<feOffset dy="5.97015"/>
<feGaussianBlur stdDeviation="5.97015"/>
<feColorMatrix type="matrix" values="0 0 0 0 0.717647 0 0 0 0 0.717647 0 0 0 0 0.717647 0 0 0 0.08 0"/>
<feBlend mode="normal" in2="effect1_dropShadow_8409_50673" result="effect2_dropShadow_8409_50673"/>
<feBlend mode="normal" in="SourceGraphic" in2="effect2_dropShadow_8409_50673" result="shape"/>
</filter>
</defs>
</svg>
