<svg width="73" height="73" viewBox="0 0 73 73" fill="none" xmlns="http://www.w3.org/2000/svg">
<path d="M17.237 34.1908C17.0361 32.889 16.9318 31.5553 16.9318 30.1973C16.9318 15.8379 28.5877 4.19727 42.9659 4.19727C57.3441 4.19727 69 15.8379 69 30.1973C69 33.441 68.4052 36.546 67.3186 39.4094C67.0929 40.0041 66.9801 40.3014 66.9289 40.5336C66.8781 40.7636 66.8585 40.9254 66.853 41.161C66.8474 41.3987 66.8795 41.6606 66.9436 42.1843L68.2452 52.8125C68.3861 53.963 68.4565 54.5383 68.2661 54.9565C68.0993 55.3229 67.8031 55.614 67.4348 55.7732C67.0145 55.9548 66.444 55.8708 65.3031 55.7027L55.0051 54.1852C54.4675 54.106 54.1986 54.0664 53.9537 54.0678C53.7115 54.0691 53.5439 54.0871 53.3068 54.1372C53.0672 54.1879 52.7611 54.3031 52.1489 54.5337C49.2931 55.6089 46.1983 56.1973 42.9659 56.1973C41.6139 56.1973 40.286 56.0943 38.9896 55.8959M22.2068 69.1973C31.7923 69.1973 39.5629 61.1944 39.5629 51.3223C39.5629 41.4502 31.7923 33.4473 22.2068 33.4473C12.6214 33.4473 4.85079 41.4502 4.85079 51.3223C4.85079 53.3067 5.16477 55.2156 5.74436 56.9991C5.98936 57.7531 6.11186 58.13 6.15206 58.3876C6.19403 58.6564 6.20139 58.8074 6.18576 59.0791C6.17079 59.3394 6.10601 59.6335 5.97647 60.2218L4 69.1973L13.6822 67.868C14.2106 67.7955 14.4749 67.7592 14.7056 67.7607C14.9486 67.7624 15.0775 67.7756 15.3158 67.8234C15.5421 67.8687 15.8785 67.9881 16.5513 68.2268C18.3241 68.8558 20.2267 69.1973 22.2068 69.1973Z" stroke="black" stroke-width="6.5" stroke-linecap="round" stroke-linejoin="round"/>
</svg>
