<svg width="73" height="73" viewBox="0 0 73 73" fill="none" xmlns="http://www.w3.org/2000/svg">
<path d="M69 69.1973H9.77778C7.75537 69.1973 6.74416 69.1973 5.9717 68.8037C5.29223 68.4575 4.7398 67.905 4.39359 67.2256C4 66.4531 4 65.4419 4 63.4195V4.19727M69 18.6417L49.3761 38.2656C48.6611 38.9807 48.3035 39.3382 47.8913 39.4721C47.5286 39.5899 47.138 39.5899 46.7754 39.4721C46.3631 39.3382 46.0056 38.9807 45.2906 38.2656L38.5428 31.5178C37.8277 30.8028 37.4702 30.4453 37.0579 30.3113C36.6953 30.1935 36.3047 30.1935 35.9421 30.3113C35.5298 30.4453 35.1723 30.8028 34.4572 31.5178L18.4444 47.5306M69 18.6417H54.5556M69 18.6417V33.0862" stroke="black" stroke-width="6.5" stroke-linecap="round" stroke-linejoin="round"/>
</svg>
