<svg width="94" height="70" viewBox="0 0 94 70" fill="none" xmlns="http://www.w3.org/2000/svg">
<g filter="url(#filter0_dd_8409_50663)">
<rect x="14" y="7" width="66.7463" height="43" rx="7.70149" fill="#FFEFE5"/>
<rect x="13.8396" y="6.83955" width="67.0672" height="43.3209" rx="7.86194" stroke="#D6DCE5" stroke-width="0.320896"/>
<path d="M52.1677 19.9911H42.3403V37.6513H52.1677V19.9911Z" fill="#FF5F00"/>
<path d="M42.9643 28.8212C42.9628 27.1204 43.3482 25.4415 44.0914 23.9117C44.8346 22.3819 45.9161 21.0412 47.254 19.9911C45.5972 18.6888 43.6073 17.8789 41.512 17.654C39.4166 17.4291 37.3002 17.7983 35.4047 18.7193C33.5092 19.6404 31.9111 21.0761 30.793 22.8625C29.6749 24.6489 29.082 26.7138 29.082 28.8212C29.082 30.9286 29.6749 32.9935 30.793 34.7799C31.9111 36.5662 33.5092 38.002 35.4047 38.9231C37.3002 39.8441 39.4166 40.2133 41.512 39.9884C43.6073 39.7635 45.5972 38.9536 47.254 37.6513C45.9161 36.6012 44.8346 35.2605 44.0914 33.7307C43.3482 32.2008 42.9628 30.522 42.9643 28.8212Z" fill="#EB001B"/>
<path d="M65.4255 28.8212C65.4255 30.9286 64.8327 32.9935 63.7147 34.7798C62.5967 36.5662 60.9986 38.002 59.1031 38.923C57.2077 39.8441 55.0913 40.2133 52.996 39.9884C50.9006 39.7635 48.9108 38.9536 47.254 37.6513C48.5908 36.6001 49.6714 35.2592 50.4145 33.7296C51.1576 32.2001 51.5437 30.5217 51.5437 28.8212C51.5437 27.1207 51.1576 25.4423 50.4145 23.9127C49.6714 22.3831 48.5908 21.0422 47.254 19.9911C48.9108 18.6888 50.9006 17.8789 52.996 17.654C55.0913 17.4291 57.2077 17.7983 59.1031 18.7193C60.9986 19.6404 62.5967 21.0762 63.7147 22.8625C64.8327 24.6489 65.4255 26.7138 65.4255 28.8212Z" fill="#F79E1B"/>
<path d="M64.3539 35.7808V35.4192H64.4997V35.3456H64.1284V35.4192H64.2743V35.7808H64.3539ZM65.0748 35.7808V35.3449H64.961L64.8301 35.6447L64.6991 35.3449H64.5852V35.7808H64.6656V35.452L64.7884 35.7355H64.8717L64.9945 35.4512V35.7808H65.0748Z" fill="#F79E1B"/>
</g>
<defs>
<filter id="filter0_dd_8409_50663" x="0.843866" y="0.261777" width="93.0584" height="69.3123" filterUnits="userSpaceOnUse" color-interpolation-filters="sRGB">
<feFlood flood-opacity="0" result="BackgroundImageFix"/>
<feColorMatrix in="SourceAlpha" type="matrix" values="0 0 0 0 0 0 0 0 0 0 0 0 0 0 0 0 0 0 127 0" result="hardAlpha"/>
<feOffset dy="0.641791"/>
<feGaussianBlur stdDeviation="3.20896"/>
<feColorMatrix type="matrix" values="0 0 0 0 0.717647 0 0 0 0 0.717647 0 0 0 0 0.717647 0 0 0 0.08 0"/>
<feBlend mode="normal" in2="BackgroundImageFix" result="effect1_dropShadow_8409_50663"/>
<feColorMatrix in="SourceAlpha" type="matrix" values="0 0 0 0 0 0 0 0 0 0 0 0 0 0 0 0 0 0 127 0" result="hardAlpha"/>
<feOffset dy="6.41791"/>
<feGaussianBlur stdDeviation="6.41791"/>
<feColorMatrix type="matrix" values="0 0 0 0 0.717647 0 0 0 0 0.717647 0 0 0 0 0.717647 0 0 0 0.08 0"/>
<feBlend mode="normal" in2="effect1_dropShadow_8409_50663" result="effect2_dropShadow_8409_50663"/>
<feBlend mode="normal" in="SourceGraphic" in2="effect2_dropShadow_8409_50663" result="shape"/>
</filter>
</defs>
</svg>
