<svg width="90" height="90" viewBox="0 0 90 90" fill="none" xmlns="http://www.w3.org/2000/svg">
<g filter="url(#filter0_d_8408_50523)">
<circle cx="45" cy="45" r="28" fill="#FFEFE5"/>
</g>
<path d="M48.6915 37.0482H40.3089V52.1119H48.6915V37.0482Z" fill="#FF5F00"/>
<path d="M40.8412 44.58C40.8399 43.1293 41.1686 41.6973 41.8026 40.3924C42.4365 39.0875 43.359 37.9439 44.5002 37.0482C43.087 35.9374 41.3897 35.2465 39.6024 35.0547C37.8151 34.8629 36.0099 35.1778 34.3931 35.9634C32.7763 36.749 31.4131 37.9737 30.4594 39.4974C29.5057 41.0212 29 42.7825 29 44.58C29 46.3776 29.5057 48.1389 30.4594 49.6627C31.4131 51.1864 32.7763 52.4111 34.3931 53.1967C36.0099 53.9823 37.8151 54.2972 39.6024 54.1054C41.3897 53.9135 43.087 53.2227 44.5002 52.1119C43.359 51.2162 42.4365 50.0726 41.8026 48.7677C41.1687 47.4628 40.8399 46.0308 40.8412 44.58Z" fill="#EB001B"/>
<path d="M60 44.58C60.0001 46.3776 59.4944 48.1389 58.5407 49.6626C57.5871 51.1864 56.224 52.411 54.6072 53.1967C52.9905 53.9823 51.1853 54.2972 49.398 54.1054C47.6107 53.9135 45.9135 53.2227 44.5002 52.1119C45.6405 51.2153 46.5622 50.0715 47.1961 48.7668C47.8299 47.4621 48.1592 46.0306 48.1592 44.58C48.1592 43.1295 47.8299 41.698 47.1961 40.3933C46.5622 39.0886 45.6405 37.9448 44.5002 37.0482C45.9135 35.9374 47.6107 35.2465 49.398 35.0547C51.1853 34.8629 52.9905 35.1778 54.6072 35.9634C56.224 36.7491 57.5871 37.9737 58.5407 39.4975C59.4944 41.0212 60.0001 42.7825 60 44.58Z" fill="#F79E1B"/>
<path d="M59.086 50.5164V50.208H59.2104V50.1452H58.8937V50.208H59.0181V50.5164H59.086ZM59.7009 50.5164V50.1446H59.6038L59.4921 50.4003L59.3804 50.1446H59.2833V50.5164H59.3519V50.2359L59.4566 50.4777H59.5277L59.6324 50.2353V50.5164H59.7009Z" fill="#F79E1B"/>
<defs>
<filter id="filter0_d_8408_50523" x="0.253639" y="0.253639" width="89.4927" height="89.4927" filterUnits="userSpaceOnUse" color-interpolation-filters="sRGB">
<feFlood flood-opacity="0" result="BackgroundImageFix"/>
<feColorMatrix in="SourceAlpha" type="matrix" values="0 0 0 0 0 0 0 0 0 0 0 0 0 0 0 0 0 0 127 0" result="hardAlpha"/>
<feOffset/>
<feGaussianBlur stdDeviation="8.37318"/>
<feComposite in2="hardAlpha" operator="out"/>
<feColorMatrix type="matrix" values="0 0 0 0 0 0 0 0 0 0 0 0 0 0 0 0 0 0 0.15 0"/>
<feBlend mode="normal" in2="BackgroundImageFix" result="effect1_dropShadow_8408_50523"/>
<feBlend mode="normal" in="SourceGraphic" in2="effect1_dropShadow_8408_50523" result="shape"/>
</filter>
</defs>
</svg>
