<svg width="90" height="90" viewBox="0 0 90 90" fill="none" xmlns="http://www.w3.org/2000/svg">
<g filter="url(#filter0_d_8408_50522)">
<circle cx="45" cy="45" r="28" fill="white"/>
</g>
<path d="M25.5924 50.4003L25.7791 49.2152L25.3634 49.2055H23.3787L24.758 40.4607C24.7622 40.4343 24.7762 40.4097 24.7965 40.3922C24.8168 40.3748 24.8429 40.3651 24.87 40.3651H28.2166C29.3276 40.3651 30.0943 40.5963 30.4946 41.0526C30.6823 41.2666 30.8018 41.4903 30.8596 41.7364C30.9202 41.9947 30.9214 42.3033 30.8621 42.6797L30.8578 42.7071V42.9483L31.0455 43.0546C31.2036 43.1384 31.3291 43.2344 31.4254 43.3443C31.5861 43.5273 31.6899 43.7599 31.7337 44.0356C31.779 44.3193 31.764 44.6567 31.6899 45.0388C31.6042 45.4783 31.4658 45.8611 31.2789 46.1743C31.1068 46.4629 30.8878 46.7022 30.6277 46.8878C30.3794 47.064 30.0843 47.1978 29.7508 47.2835C29.4275 47.3676 29.059 47.4101 28.6547 47.4101H28.3943C28.2081 47.4101 28.0271 47.4771 27.8852 47.5974C27.7428 47.7201 27.6485 47.8877 27.6197 48.0711L27.6001 48.1778L27.2704 50.2664L27.2554 50.3432C27.2515 50.3675 27.2447 50.3796 27.2348 50.3878C27.2258 50.3952 27.213 50.4003 27.2005 50.4003H25.5924Z" fill="#253B80"/>
<path d="M31.2226 42.7355C31.2126 42.7993 31.2012 42.8646 31.1884 42.9317C30.747 45.1973 29.2371 45.98 27.3087 45.98H26.3269C26.0911 45.98 25.8923 46.1513 25.8556 46.3838L25.2105 50.4753C25.1865 50.628 25.3044 50.7657 25.4584 50.7657H27.1999C27.4062 50.7657 27.5813 50.6159 27.6137 50.4126L27.6309 50.324L27.9588 48.2435L27.9799 48.1294C28.0119 47.9254 28.1874 47.7756 28.3936 47.7756H28.6541C30.3413 47.7756 31.6621 47.0906 32.0482 45.1085C32.2094 44.2805 32.1259 43.5891 31.6992 43.1029C31.5701 42.9563 31.4099 42.8346 31.2226 42.7355Z" fill="#179BD7"/>
<path d="M30.76 42.5508C30.6926 42.5312 30.623 42.5134 30.5516 42.4973C30.4799 42.4816 30.4064 42.4677 30.3308 42.4556C30.066 42.4128 29.776 42.3924 29.4652 42.3924H26.8422C26.7776 42.3924 26.7163 42.407 26.6613 42.4335C26.5404 42.4916 26.4505 42.6061 26.4287 42.7463L25.8706 46.2802L25.8546 46.3833C25.8914 46.1507 26.0901 45.9795 26.3259 45.9795H27.3078C29.2362 45.9795 30.7461 45.1964 31.1874 42.9311C31.2006 42.864 31.2117 42.7988 31.2216 42.7349C31.11 42.6757 30.989 42.625 30.8588 42.5819C30.8267 42.5712 30.7936 42.5608 30.76 42.5508Z" fill="#222D65"/>
<path d="M26.43 42.7466C26.4518 42.6063 26.5418 42.4918 26.6627 42.434C26.718 42.4076 26.779 42.393 26.8435 42.393H29.4666C29.7774 42.393 30.0674 42.4133 30.3321 42.4562C30.4078 42.4683 30.4813 42.4822 30.553 42.4979C30.6244 42.514 30.6939 42.5318 30.7614 42.5514C30.7949 42.5614 30.8281 42.5717 30.8605 42.5821C30.9907 42.6253 31.1117 42.6763 31.2234 42.7351C31.3547 41.8979 31.2223 41.3278 30.7696 40.8116C30.2705 40.2433 29.3696 40 28.2169 40H24.8702C24.6347 40 24.4339 40.1712 24.3975 40.4042L23.0036 49.2389C22.9761 49.4137 23.1109 49.5714 23.2871 49.5714H25.3533L26.43 42.7466Z" fill="#253B80"/>
<path fill-rule="evenodd" clip-rule="evenodd" d="M39.5207 42.3094H37.0702C36.9025 42.3094 36.7599 42.4312 36.7337 42.5967L35.7426 48.8798C35.7229 49.0038 35.819 49.1155 35.9447 49.1155H37.1146C37.2823 49.1155 37.4249 48.9937 37.4511 48.8279L37.7184 47.1333C37.7442 46.9673 37.8871 46.8456 38.0545 46.8456H38.8302C40.4444 46.8456 41.376 46.0645 41.6194 44.5168C41.729 43.8397 41.624 43.3076 41.3068 42.9349C40.9586 42.5259 40.3408 42.3094 39.5207 42.3094ZM39.8034 44.6042C39.6694 45.4834 38.9975 45.4834 38.3479 45.4834H37.9781L38.2376 43.8413C38.253 43.7422 38.339 43.6691 38.4393 43.6691H38.6088C39.0513 43.6691 39.4688 43.6691 39.6845 43.9213C39.813 44.0718 39.8525 44.2953 39.8034 44.6042ZM46.8457 44.576H45.6722C45.5723 44.576 45.4859 44.6491 45.4705 44.7484L45.4186 45.0765L45.3365 44.9577C45.0824 44.5889 44.516 44.4657 43.9506 44.4657C42.6537 44.4657 41.5463 45.4478 41.3305 46.8254C41.2184 47.5124 41.3778 48.1695 41.7676 48.6277C42.1253 49.049 42.637 49.2246 43.2457 49.2246C44.2905 49.2246 44.87 48.5528 44.87 48.5528L44.8176 48.8789C44.7979 49.0036 44.8939 49.1154 45.0189 49.1154H46.076C46.2441 49.1154 46.3859 48.9935 46.4125 48.8277L47.0467 44.8118C47.0668 44.6882 46.9711 44.576 46.8457 44.576ZM45.21 46.8597C45.0967 47.53 44.5646 47.98 43.8861 47.98C43.5453 47.98 43.2729 47.8707 43.0981 47.6636C42.9247 47.458 42.8587 47.1652 42.9139 46.8393C43.0197 46.1746 43.5608 45.71 44.229 45.71C44.5621 45.71 44.8331 45.8206 45.0115 46.0295C45.1902 46.2406 45.2612 46.5351 45.21 46.8597ZM51.9162 44.5758H53.0955C53.2606 44.5758 53.357 44.761 53.2631 44.8965L49.3411 50.5571C49.2776 50.6488 49.1729 50.7034 49.0612 50.7034H47.8834C47.7176 50.7034 47.6207 50.5167 47.7168 50.3809L48.938 48.6573L47.6392 44.8459C47.5942 44.7134 47.692 44.5758 47.833 44.5758H48.9917C49.1423 44.5758 49.2751 44.6746 49.3185 44.8187L50.0078 47.1206L51.6343 44.7252C51.698 44.6317 51.8038 44.5758 51.9162 44.5758Z" fill="#253B80"/>
<path fill-rule="evenodd" clip-rule="evenodd" d="M64.702 48.8792L65.7077 42.4812C65.7231 42.3819 65.8092 42.3088 65.9092 42.3085H67.0413C67.1664 42.3085 67.2624 42.4206 67.2426 42.5446L66.2509 48.8273C66.225 48.9931 66.0824 49.115 65.9145 49.115H64.9033C64.7783 49.115 64.6823 49.0032 64.702 48.8792ZM57.0001 42.3088H54.5491C54.3818 42.3088 54.2392 42.4307 54.213 42.5961L53.222 48.8792C53.2022 49.0032 53.2982 49.115 53.4234 49.115H54.681C54.7979 49.115 54.8978 49.0297 54.9161 48.9137L55.1973 47.1327C55.2232 46.9667 55.3661 46.845 55.5334 46.845H56.3088C57.9233 46.845 58.8547 46.064 59.0983 44.5162C59.2082 43.8391 59.1026 43.3071 58.7856 42.9344C58.4375 42.5253 57.8202 42.3088 57.0001 42.3088ZM57.2828 44.6036C57.1491 45.4828 56.4772 45.4828 55.8272 45.4828H55.4578L55.7176 43.8408C55.7331 43.7416 55.8183 43.6685 55.9189 43.6685H56.0884C56.5306 43.6685 56.9485 43.6685 57.164 43.9207C57.2927 44.0712 57.3319 44.2947 57.2828 44.6036ZM64.3245 44.5754H63.1518C63.051 44.5754 62.9654 44.6485 62.9503 44.7479L62.8984 45.076L62.816 44.9571C62.562 44.5884 61.9959 44.4652 61.4305 44.4652C60.1336 44.4652 59.0265 45.4472 58.8108 46.8248C58.699 47.5119 58.8577 48.1689 59.2475 48.6272C59.6059 49.0485 60.1169 49.2241 60.7256 49.2241C61.7704 49.2241 62.3498 48.5522 62.3498 48.5522L62.2975 48.8784C62.2778 49.0031 62.3738 49.1148 62.4997 49.1148H63.5562C63.7235 49.1148 63.8661 48.9929 63.8923 48.8271L64.5269 44.8112C64.5463 44.6877 64.4503 44.5754 64.3245 44.5754ZM62.6889 46.8591C62.5763 47.5294 62.0435 47.9794 61.3648 47.9794C61.0247 47.9794 60.7518 47.8702 60.5769 47.6631C60.4034 47.4575 60.3383 47.1647 60.3928 46.8387C60.4991 46.1741 61.0395 45.7095 61.7077 45.7095C62.041 45.7095 62.3118 45.8201 62.4904 46.029C62.6698 46.24 62.7408 46.5345 62.6889 46.8591Z" fill="#179BD7"/>
<defs>
<filter id="filter0_d_8408_50522" x="0.253639" y="0.253639" width="89.4927" height="89.4927" filterUnits="userSpaceOnUse" color-interpolation-filters="sRGB">
<feFlood flood-opacity="0" result="BackgroundImageFix"/>
<feColorMatrix in="SourceAlpha" type="matrix" values="0 0 0 0 0 0 0 0 0 0 0 0 0 0 0 0 0 0 127 0" result="hardAlpha"/>
<feOffset/>
<feGaussianBlur stdDeviation="8.37318"/>
<feComposite in2="hardAlpha" operator="out"/>
<feColorMatrix type="matrix" values="0 0 0 0 0 0 0 0 0 0 0 0 0 0 0 0 0 0 0.15 0"/>
<feBlend mode="normal" in2="BackgroundImageFix" result="effect1_dropShadow_8408_50522"/>
<feBlend mode="normal" in="SourceGraphic" in2="effect1_dropShadow_8408_50522" result="shape"/>
</filter>
</defs>
</svg>
