<svg width="94" height="70" viewBox="0 0 94 70" fill="none" xmlns="http://www.w3.org/2000/svg">
<g filter="url(#filter0_dd_8409_50669)">
<rect x="13.4961" y="7" width="66.75" height="43" rx="7.5" fill="#E7EBFA"/>
<rect x="13.3398" y="6.84375" width="67.0625" height="43.3125" rx="7.65625" stroke="#D6DCE5" stroke-width="0.3125"/>
<path fill-rule="evenodd" clip-rule="evenodd" d="M27.7772 22.2436H23.9288C23.6654 22.2436 23.4414 22.435 23.4004 22.6948L21.8439 32.5615C21.8129 32.7563 21.9637 32.9318 22.1613 32.9318H23.9985C24.2619 32.9318 24.4859 32.7404 24.5269 32.48L24.9467 29.8189C24.9872 29.5582 25.2117 29.3671 25.4745 29.3671H26.6928C29.2279 29.3671 30.6909 28.1406 31.0731 25.7101C31.2453 24.6467 31.0804 23.8112 30.5823 23.2259C30.0354 22.5836 29.0651 22.2436 27.7772 22.2436ZM28.2212 25.8473C28.0107 27.228 26.9556 27.228 25.9354 27.228H25.3547L25.7621 24.6493C25.7863 24.4936 25.9213 24.3788 26.0789 24.3788H26.3451C27.04 24.3788 27.6957 24.3788 28.0344 24.7748C28.2363 25.0112 28.2982 25.3622 28.2212 25.8473ZM39.281 25.803H37.438C37.281 25.803 37.1454 25.9178 37.1211 26.0738L37.0396 26.5891L36.9107 26.4024C36.5118 25.8233 35.6222 25.6299 34.7342 25.6299C32.6976 25.6299 30.9583 27.172 30.6195 29.3354C30.4435 30.4143 30.6937 31.4461 31.306 32.1658C31.8677 32.8274 32.6713 33.1031 33.6272 33.1031C35.2681 33.1031 36.1782 32.0481 36.1782 32.0481L36.0959 32.5602C36.0649 32.756 36.2157 32.9315 36.412 32.9315H38.0721C38.3362 32.9315 38.5588 32.7401 38.6005 32.4798L39.5966 26.1733C39.6281 25.9793 39.4778 25.803 39.281 25.803ZM36.712 29.3893C36.5342 30.4419 35.6985 31.1485 34.6329 31.1485C34.0978 31.1485 33.6699 30.977 33.3955 30.6518C33.1231 30.3289 33.0194 29.8691 33.1062 29.3572C33.2723 28.3134 34.122 27.5839 35.1715 27.5839C35.6946 27.5839 36.1201 27.7576 36.4003 28.0856C36.681 28.4171 36.7925 28.8795 36.712 29.3893ZM47.244 25.8028H49.096C49.3554 25.8028 49.5067 26.0936 49.3593 26.3063L43.1998 35.1956C43.1001 35.3396 42.9358 35.4253 42.7603 35.4253H40.9106C40.6502 35.4253 40.4981 35.1321 40.6489 34.9189L42.5668 32.2121L40.527 26.2269C40.4564 26.0189 40.6101 25.8028 40.8314 25.8028H42.6512C42.8876 25.8028 43.0962 25.9579 43.1644 26.1842L44.247 29.7991L46.8013 26.0373C46.9013 25.8905 47.0674 25.8028 47.244 25.8028Z" fill="#253B80"/>
<path fill-rule="evenodd" clip-rule="evenodd" d="M67.3238 32.5607L68.9032 22.5135C68.9274 22.3575 69.0625 22.2427 69.2196 22.2422H70.9976C71.194 22.2422 71.3448 22.4182 71.3138 22.6129L69.7563 32.4792C69.7156 32.7395 69.4917 32.9309 69.2279 32.9309H67.6399C67.4436 32.9309 67.2928 32.7554 67.3238 32.5607ZM55.2281 22.2427H51.379C51.1162 22.2427 50.8923 22.4341 50.8511 22.6939L49.2947 32.5607C49.2637 32.7554 49.4145 32.9309 49.6111 32.9309H51.586C51.7696 32.9309 51.9266 32.7971 51.9553 32.6148L52.3969 29.818C52.4375 29.5574 52.662 29.3663 52.9248 29.3663H54.1424C56.678 29.3663 58.1408 28.1397 58.5233 25.7092C58.6959 24.6459 58.5301 23.8104 58.0322 23.2251C57.4856 22.5827 56.5161 22.2427 55.2281 22.2427ZM55.6721 25.8464C55.4622 27.2271 54.407 27.2271 53.3862 27.2271H52.806L53.2141 24.6485C53.2383 24.4928 53.3722 24.378 53.5302 24.378H53.7964C54.4909 24.378 55.1471 24.3779 55.4856 24.774C55.6877 25.0104 55.7492 25.3613 55.6721 25.8464ZM66.7309 25.8021H64.8892C64.7309 25.8021 64.5965 25.917 64.5728 26.0729L64.4913 26.5882L64.3619 26.4015C63.963 25.8224 63.0739 25.629 62.1859 25.629C60.1493 25.629 58.4105 27.1711 58.0717 29.3345C57.8962 30.4134 58.1454 31.4453 58.7577 32.1649C59.3204 32.8265 60.123 33.1022 61.0789 33.1022C62.7198 33.1022 63.6296 32.0472 63.6296 32.0472L63.5476 32.5594C63.5166 32.7552 63.6674 32.9306 63.8651 32.9306H65.5244C65.7871 32.9306 66.0111 32.7393 66.0522 32.4789L67.0488 26.1724C67.0793 25.9784 66.9285 25.8021 66.7309 25.8021ZM64.1622 29.3884C63.9854 30.441 63.1487 31.1477 62.0828 31.1477C61.5487 31.1477 61.1201 30.9761 60.8454 30.6509C60.573 30.328 60.4706 29.8682 60.5563 29.3564C60.7232 28.3126 61.5719 27.583 62.6213 27.583C63.1448 27.583 63.57 27.7567 63.8505 28.0847C64.1322 28.4162 64.2437 28.8786 64.1622 29.3884Z" fill="#179BD7"/>
</g>
<defs>
<filter id="filter0_dd_8409_50669" x="0.683594" y="0.4375" width="92.375" height="68.625" filterUnits="userSpaceOnUse" color-interpolation-filters="sRGB">
<feFlood flood-opacity="0" result="BackgroundImageFix"/>
<feColorMatrix in="SourceAlpha" type="matrix" values="0 0 0 0 0 0 0 0 0 0 0 0 0 0 0 0 0 0 127 0" result="hardAlpha"/>
<feOffset dy="0.625"/>
<feGaussianBlur stdDeviation="3.125"/>
<feColorMatrix type="matrix" values="0 0 0 0 0.717647 0 0 0 0 0.717647 0 0 0 0 0.717647 0 0 0 0.08 0"/>
<feBlend mode="normal" in2="BackgroundImageFix" result="effect1_dropShadow_8409_50669"/>
<feColorMatrix in="SourceAlpha" type="matrix" values="0 0 0 0 0 0 0 0 0 0 0 0 0 0 0 0 0 0 127 0" result="hardAlpha"/>
<feOffset dy="6.25"/>
<feGaussianBlur stdDeviation="6.25"/>
<feColorMatrix type="matrix" values="0 0 0 0 0.717647 0 0 0 0 0.717647 0 0 0 0 0.717647 0 0 0 0.08 0"/>
<feBlend mode="normal" in2="effect1_dropShadow_8409_50669" result="effect2_dropShadow_8409_50669"/>
<feBlend mode="normal" in="SourceGraphic" in2="effect2_dropShadow_8409_50669" result="shape"/>
</filter>
</defs>
</svg>
