<svg width="73" height="73" viewBox="0 0 73 73" fill="none" xmlns="http://www.w3.org/2000/svg">
<path d="M39.75 11.4195C39.75 15.4082 31.7471 18.6417 21.875 18.6417C12.0029 18.6417 4 15.4082 4 11.4195M39.75 11.4195C39.75 7.43076 31.7471 4.19727 21.875 4.19727C12.0029 4.19727 4 7.43076 4 11.4195M39.75 11.4195V27.5148C35.7801 28.8394 33.25 30.8434 33.25 33.0862M4 11.4195V54.7528C4 58.7415 12.0029 61.975 21.875 61.975C26.1963 61.975 30.1594 61.3555 33.25 60.3242V33.0862M4 25.8639C4 29.8527 12.0029 33.0862 21.875 33.0862C26.1963 33.0862 30.1594 32.4666 33.25 31.4353M4 40.3084C4 44.2971 12.0029 47.5306 21.875 47.5306C26.1963 47.5306 30.1594 46.911 33.25 45.8798M69 33.0862C69 37.0749 60.9971 40.3084 51.125 40.3084C41.2529 40.3084 33.25 37.0749 33.25 33.0862M69 33.0862C69 29.0974 60.9971 25.8639 51.125 25.8639C41.2529 25.8639 33.25 29.0974 33.25 33.0862M69 33.0862V61.975C69 65.9638 60.9971 69.1973 51.125 69.1973C41.2529 69.1973 33.25 65.9638 33.25 61.975V33.0862M69 47.5306C69 51.5193 60.9971 54.7528 51.125 54.7528C41.2529 54.7528 33.25 51.5193 33.25 47.5306" stroke="#1E1E1E" stroke-width="6.5" stroke-linecap="round" stroke-linejoin="round"/>
</svg>
