<svg width="94" height="70" viewBox="0 0 94 70" fill="none" xmlns="http://www.w3.org/2000/svg">
<g filter="url(#filter0_dd_8409_50676)">
<rect x="13.9961" y="7" width="66.7463" height="43" rx="7.70149" fill="#F3E9F0"/>
<rect x="13.8356" y="6.83955" width="67.0672" height="43.3209" rx="7.86194" stroke="#D6DCE5" stroke-width="0.320896"/>
<path d="M55.3938 36.0328H59.3038V25.0624H55.3938V36.0328ZM53.1923 24.9007C49.5802 25.0171 47.7456 26.6387 47.7456 29.8601V36.0328H51.691V30.9984C51.691 29.0691 51.9435 28.2366 54.2319 28.1636V24.9579C53.9666 24.9142 53.6979 24.8944 53.429 24.8987H53.1962M23.623 25.8081C23.623 27.0746 24.1655 30.0574 29.2118 30.4026C29.6399 30.4283 30.7742 30.4934 30.7742 31.5587C30.7742 32.4365 29.845 32.9534 28.2826 32.9534C26.7818 32.9406 25.296 32.6524 23.8992 32.1031V35.6067C25.6032 36.0271 27.3543 36.226 29.1092 36.1985C33.4176 36.1985 35.347 33.7681 35.347 31.3614C35.347 28.6331 33.177 26.8596 29.5649 26.6268C29.0717 26.5953 27.9275 26.5203 27.9275 25.4905C27.9275 24.2497 29.5748 24.2497 30.1922 24.2497C31.2772 24.2497 32.6838 24.5693 33.6879 24.8711C33.6879 24.8711 34.2482 25.0684 34.7256 25.2656L34.769 25.2775V21.8627L34.7078 21.8449C33.5242 21.4306 32.1433 21.0321 29.5906 21.0321C25.1835 21.0341 23.623 23.6006 23.623 25.8081ZM36.3294 21.839V36.0427H40.3617V31.6415C41.5315 33.3953 42.1075 36.0328 42.1075 36.0328H46.9387C46.4594 34.0463 44.3742 30.3829 44.3742 30.3829C45.6157 28.7825 46.5732 26.9809 47.205 25.0565H42.5889C42.0591 26.4417 41.3068 27.731 40.3617 28.8738V21.0341L36.3294 21.839ZM60.9589 21.7404V36.0407H64.8649V21.0479L60.9589 21.7404ZM66.664 21.7404V36.0407H70.574V21.0479L66.664 21.7404ZM57.3488 20.1622C56.9676 20.1622 56.595 20.2752 56.278 20.487C55.9611 20.6988 55.7141 20.9998 55.5682 21.352C55.4223 21.7041 55.3841 22.0917 55.4585 22.4655C55.5329 22.8394 55.7164 23.1828 55.986 23.4524C56.2555 23.7219 56.5989 23.9055 56.9728 23.9799C57.3467 24.0542 57.7342 24.0161 58.0864 23.8702C58.4386 23.7243 58.7396 23.4773 58.9514 23.1603C59.1631 22.8434 59.2762 22.4707 59.2762 22.0895C59.2777 21.5787 59.0765 21.0881 58.7165 20.7256C58.3566 20.3631 57.8675 20.1583 57.3567 20.1562L57.3488 20.1622Z" fill="url(#paint0_linear_8409_50676)"/>
</g>
<defs>
<filter id="filter0_dd_8409_50676" x="0.83996" y="0.261777" width="93.0584" height="69.3123" filterUnits="userSpaceOnUse" color-interpolation-filters="sRGB">
<feFlood flood-opacity="0" result="BackgroundImageFix"/>
<feColorMatrix in="SourceAlpha" type="matrix" values="0 0 0 0 0 0 0 0 0 0 0 0 0 0 0 0 0 0 127 0" result="hardAlpha"/>
<feOffset dy="0.641791"/>
<feGaussianBlur stdDeviation="3.20896"/>
<feColorMatrix type="matrix" values="0 0 0 0 0.717647 0 0 0 0 0.717647 0 0 0 0 0.717647 0 0 0 0.08 0"/>
<feBlend mode="normal" in2="BackgroundImageFix" result="effect1_dropShadow_8409_50676"/>
<feColorMatrix in="SourceAlpha" type="matrix" values="0 0 0 0 0 0 0 0 0 0 0 0 0 0 0 0 0 0 127 0" result="hardAlpha"/>
<feOffset dy="6.41791"/>
<feGaussianBlur stdDeviation="6.41791"/>
<feColorMatrix type="matrix" values="0 0 0 0 0.717647 0 0 0 0 0.717647 0 0 0 0 0.717647 0 0 0 0.08 0"/>
<feBlend mode="normal" in2="effect1_dropShadow_8409_50676" result="effect2_dropShadow_8409_50676"/>
<feBlend mode="normal" in="SourceGraphic" in2="effect2_dropShadow_8409_50676" result="shape"/>
</filter>
<linearGradient id="paint0_linear_8409_50676" x1="24.0462" y1="27.3615" x2="71.1143" y2="27.3615" gradientUnits="userSpaceOnUse">
<stop stop-color="#872165"/>
<stop offset="1" stop-color="#4F2455"/>
</linearGradient>
</defs>
</svg>
