<svg width="90" height="90" viewBox="0 0 90 90" fill="none" xmlns="http://www.w3.org/2000/svg">
<g filter="url(#filter0_d_8408_50525)">
<circle cx="45" cy="45" r="28" fill="url(#paint0_linear_8408_50525)"/>
</g>
<path d="M51.2485 51.6172H54.3557V42.899H51.2485V51.6172ZM49.4989 42.7704C46.6283 42.8629 45.1703 44.1516 45.1703 46.7117V51.6172H48.3058V47.6163C48.3058 46.0831 48.5065 45.4215 50.3251 45.3635V42.8159C50.1142 42.7812 49.9007 42.7654 49.687 42.7689H49.502M26 43.4916C26 44.4981 26.4311 46.8685 30.4414 47.1429C30.7816 47.1633 31.6831 47.215 31.6831 48.0616C31.6831 48.7592 30.9447 49.17 29.703 49.17C28.5103 49.1598 27.3295 48.9308 26.2195 48.4943V51.2786C27.5737 51.6127 28.9653 51.7708 30.3599 51.7489C33.7838 51.7489 35.3171 49.8174 35.3171 47.9048C35.3171 45.7366 33.5926 44.3272 30.722 44.1422C30.3301 44.1171 29.4208 44.0575 29.4208 43.2392C29.4208 42.2531 30.7299 42.2531 31.2206 42.2531C32.0828 42.2531 33.2006 42.507 33.9986 42.7469C33.9986 42.7469 34.4439 42.9037 34.8233 43.0605L34.8577 43.0699V40.3561L34.8091 40.342C33.8685 40.0128 32.7711 39.6961 30.7424 39.6961C27.2401 39.6976 26 41.7373 26 43.4916ZM36.0978 40.3373V51.6251H39.3023V48.1274C40.232 49.5211 40.6897 51.6172 40.6897 51.6172H44.5291C44.1482 50.0385 42.4911 47.1272 42.4911 47.1272C43.4777 45.8554 44.2386 44.4236 44.7408 42.8943H41.0723C40.6513 43.9951 40.0534 45.0197 39.3023 45.9279V39.6976L36.0978 40.3373ZM55.6711 40.2589V51.6235H58.7752V39.7086L55.6711 40.2589ZM60.205 40.2589V51.6235H63.3123V39.7086L60.205 40.2589ZM52.8021 39.0047C52.4992 39.0047 52.203 39.0945 51.9512 39.2628C51.6993 39.4311 51.503 39.6704 51.387 39.9502C51.2711 40.2301 51.2408 40.5381 51.2999 40.8352C51.359 41.1323 51.5048 41.4052 51.719 41.6195C51.9333 41.8337 52.2062 41.9795 52.5033 42.0386C52.8004 42.0977 53.1084 42.0674 53.3883 41.9515C53.6681 41.8356 53.9074 41.6392 54.0757 41.3874C54.244 41.1355 54.3338 40.8393 54.3338 40.5364C54.335 40.1304 54.1751 39.7406 53.8891 39.4525C53.603 39.1644 53.2143 39.0017 52.8084 39L52.8021 39.0047Z" fill="white"/>
<defs>
<filter id="filter0_d_8408_50525" x="0.253639" y="0.253639" width="89.4927" height="89.4927" filterUnits="userSpaceOnUse" color-interpolation-filters="sRGB">
<feFlood flood-opacity="0" result="BackgroundImageFix"/>
<feColorMatrix in="SourceAlpha" type="matrix" values="0 0 0 0 0 0 0 0 0 0 0 0 0 0 0 0 0 0 127 0" result="hardAlpha"/>
<feOffset/>
<feGaussianBlur stdDeviation="8.37318"/>
<feComposite in2="hardAlpha" operator="out"/>
<feColorMatrix type="matrix" values="0 0 0 0 0 0 0 0 0 0 0 0 0 0 0 0 0 0 0.15 0"/>
<feBlend mode="normal" in2="BackgroundImageFix" result="effect1_dropShadow_8408_50525"/>
<feBlend mode="normal" in="SourceGraphic" in2="effect1_dropShadow_8408_50525" result="shape"/>
</filter>
<linearGradient id="paint0_linear_8408_50525" x1="17" y1="45" x2="73" y2="45" gradientUnits="userSpaceOnUse">
<stop stop-color="#872165"/>
<stop offset="1" stop-color="#210819"/>
</linearGradient>
</defs>
</svg>
