<svg width="314" height="978" viewBox="0 0 314 978" fill="none" xmlns="http://www.w3.org/2000/svg">
<path fill-rule="evenodd" clip-rule="evenodd" d="M2.05664 81.4031C2.05664 58.9242 9.66919 39.7373 24.8943 23.8424C40.1194 7.94747 58.4978 0 80.0293 0C101.561 0 119.939 7.94747 135.164 23.8424C150.389 39.7373 158.002 58.9242 158.002 81.4031C158.002 103.882 150.389 123.069 135.164 138.964C119.939 154.859 101.561 162.806 80.0293 162.806C58.4978 162.806 40.1194 154.859 24.8943 138.964C9.66919 123.069 2.05664 103.882 2.05664 81.4031Z" fill="#040E53"/>
<path fill-rule="evenodd" clip-rule="evenodd" d="M2.05664 570.985C2.05664 548.506 9.66919 529.319 24.8943 513.424C40.1194 497.529 58.4978 489.582 80.0293 489.582C101.561 489.582 119.939 497.529 135.164 513.424C150.389 529.319 158.002 548.506 158.002 570.985C158.002 593.464 150.389 612.651 135.164 628.546C119.939 644.441 101.561 652.388 80.0293 652.388C58.4978 652.388 40.1194 644.441 24.8943 628.546C9.66919 612.651 2.05664 593.464 2.05664 570.985Z" fill="#040E53"/>
<path fill-rule="evenodd" clip-rule="evenodd" d="M235.975 0H313.947V162.806H158.002V81.4031C158.002 36.4454 192.911 0 235.975 0Z" fill="#EDDFA6"/>
<path fill-rule="evenodd" clip-rule="evenodd" d="M235.975 489.582H313.947V652.388H158.002V570.985C158.002 526.027 192.911 489.582 235.975 489.582Z" fill="#EDDFA6"/>
<path fill-rule="evenodd" clip-rule="evenodd" d="M234.861 325.613C277.924 325.613 312.834 362.059 312.834 407.016V488.419H156.889V407.016C156.889 362.059 191.798 325.613 234.861 325.613Z" fill="#B1B4CA"/>
<path fill-rule="evenodd" clip-rule="evenodd" d="M234.861 815.193C277.924 815.193 312.834 851.639 312.834 896.596V978H156.889V896.596C156.889 851.639 191.798 815.193 234.861 815.193Z" fill="#B1B4CA"/>
<path fill-rule="evenodd" clip-rule="evenodd" d="M0.943359 325.613H78.916C121.979 325.613 156.889 362.059 156.889 407.016V488.419H78.916C35.8529 488.419 0.943359 451.974 0.943359 407.016V325.613Z" fill="#EDDFA6"/>
<path fill-rule="evenodd" clip-rule="evenodd" d="M0.943359 815.193H78.916C121.979 815.193 156.889 851.639 156.889 896.596V978H78.916C35.8529 978 0.943359 941.554 0.943359 896.596V815.193Z" fill="#EDDFA6"/>
<path fill-rule="evenodd" clip-rule="evenodd" d="M158.002 162.807H313.947V325.613H235.975C192.911 325.613 158.002 289.167 158.002 244.21V162.807Z" fill="#040E53"/>
<path fill-rule="evenodd" clip-rule="evenodd" d="M158.002 652.387H313.947V815.193H235.975C192.911 815.193 158.002 778.747 158.002 733.79V652.387Z" fill="#040E53"/>
<path fill-rule="evenodd" clip-rule="evenodd" d="M2.05664 162.807H158.002V244.21C158.002 289.167 123.092 325.613 80.0293 325.613H2.05664V162.807Z" fill="#B1B4CA"/>
<path fill-rule="evenodd" clip-rule="evenodd" d="M2.05664 652.387H158.002V733.79C158.002 778.747 123.092 815.193 80.0293 815.193H2.05664V652.387Z" fill="#B1B4CA"/>
</svg>
