<svg width="313" height="978" viewBox="0 0 313 978" fill="none" xmlns="http://www.w3.org/2000/svg">
<path fill-rule="evenodd" clip-rule="evenodd" d="M155.943 81.4031C155.943 58.9242 163.556 39.7373 178.781 23.8424C194.006 7.94747 212.384 0 233.916 0C255.448 0 273.826 7.94747 289.051 23.8424C304.276 39.7373 311.889 58.9242 311.889 81.4031C311.889 103.882 304.276 123.069 289.051 138.964C273.826 154.859 255.448 162.806 233.916 162.806C212.384 162.806 194.006 154.859 178.781 138.964C163.556 123.069 155.943 103.882 155.943 81.4031Z" fill="#040E53"/>
<path fill-rule="evenodd" clip-rule="evenodd" d="M155.943 570.985C155.943 548.506 163.556 529.319 178.781 513.424C194.006 497.529 212.384 489.582 233.916 489.582C255.448 489.582 273.826 497.529 289.051 513.424C304.276 529.319 311.889 548.506 311.889 570.985C311.889 593.464 304.276 612.651 289.051 628.546C273.826 644.441 255.448 652.388 233.916 652.388C212.384 652.388 194.006 644.441 178.781 628.546C163.556 612.651 155.943 593.464 155.943 570.985Z" fill="#040E53"/>
<path fill-rule="evenodd" clip-rule="evenodd" d="M-0.00195312 0H77.9707C121.034 0 155.943 36.4454 155.943 81.4031V162.806H-0.00195312V0Z" fill="#EDDFA6"/>
<path fill-rule="evenodd" clip-rule="evenodd" d="M-0.00195312 489.582H77.9707C121.034 489.582 155.943 526.027 155.943 570.985V652.388H-0.00195312V489.582Z" fill="#EDDFA6"/>
<path fill-rule="evenodd" clip-rule="evenodd" d="M79.086 325.613C122.149 325.613 157.059 362.059 157.059 407.016V488.419H1.11328V407.016C1.11327 362.059 36.0228 325.613 79.086 325.613Z" fill="#B1B4CA"/>
<path fill-rule="evenodd" clip-rule="evenodd" d="M79.086 815.193C122.149 815.193 157.059 851.639 157.059 896.596V978H1.11328V896.596C1.11327 851.639 36.0228 815.193 79.086 815.193Z" fill="#B1B4CA"/>
<path fill-rule="evenodd" clip-rule="evenodd" d="M235.029 325.613H313.002V407.016C313.002 451.974 278.092 488.419 235.029 488.419H157.057V407.016C157.057 362.059 191.966 325.613 235.029 325.613Z" fill="#EDDFA6"/>
<path fill-rule="evenodd" clip-rule="evenodd" d="M235.029 815.193H313.002V896.596C313.002 941.554 278.092 978 235.029 978H157.057V896.596C157.057 851.639 191.966 815.193 235.029 815.193Z" fill="#EDDFA6"/>
<path fill-rule="evenodd" clip-rule="evenodd" d="M-0.00195312 162.807H155.943V244.21C155.943 289.167 121.034 325.613 77.9707 325.613H-0.00195312V162.807Z" fill="#040E53"/>
<path fill-rule="evenodd" clip-rule="evenodd" d="M-0.00195312 652.387H155.943V733.79C155.943 778.747 121.034 815.193 77.9707 815.193H-0.00195312V652.387Z" fill="#040E53"/>
<path fill-rule="evenodd" clip-rule="evenodd" d="M155.943 162.807H311.889V325.613H233.916C190.853 325.613 155.943 289.167 155.943 244.21V162.807Z" fill="#B1B4CA"/>
<path fill-rule="evenodd" clip-rule="evenodd" d="M155.943 652.387H311.889V815.193H233.916C190.853 815.193 155.943 778.747 155.943 733.79V652.387Z" fill="#B1B4CA"/>
</svg>
