<svg width="90" height="90" viewBox="0 0 90 90" fill="none" xmlns="http://www.w3.org/2000/svg">
<g filter="url(#filter0_d_8408_50524)">
<circle cx="45" cy="45" r="28" fill="#6D1ED4"/>
</g>
<path d="M49.542 50.4962C49.3218 50.1111 49.1842 49.6772 49.121 49.1702C49.1121 49.0997 49.0748 49.0361 49.0172 48.9943C48.9729 48.962 48.9203 48.9451 48.8666 48.9451C48.8502 48.9451 48.8338 48.9466 48.8174 48.9496C48.7225 48.9685 48.6275 48.9779 48.5356 48.9779C48.2394 48.9779 48.0127 48.9282 48.0127 48.302V47.7026H48.0112V39.2834C48.0112 39.1542 47.9064 39.0494 47.7767 39.0494H46.0749C45.9457 39.0494 45.8408 39.1542 45.8408 39.2834V48.5048C45.8408 49.1956 45.9044 49.7174 46.2215 50.1836C46.6097 50.7169 47.3825 51.0265 48.0927 51.0265C48.13 51.0265 48.1673 51.026 48.2031 51.026H48.2041C48.6355 51.026 49.0564 50.9868 49.4033 50.866C49.4754 50.8412 49.5326 50.785 49.5594 50.7134C49.5862 50.6419 49.5798 50.5623 49.542 50.4962Z" fill="white"/>
<path d="M54.1603 50.1998C53.8467 49.7426 53.7488 49.6636 53.5375 49.1701C53.5092 49.105 53.4913 49.0359 53.4337 48.9941C53.3894 48.9618 53.3368 48.9454 53.2826 48.9454C53.2667 48.9454 53.2503 48.9469 53.2339 48.9499C53.1389 48.9683 53.044 48.9777 52.9521 48.9777C52.6559 48.9777 52.4292 48.928 52.4292 48.3023V47.7024L52.4277 47.7029V39.2838C52.4277 39.154 52.3229 39.0497 52.1936 39.0497H50.4914C50.3622 39.0497 50.2573 39.154 50.2573 39.2838V48.5046C50.2573 49.1954 50.3209 49.7173 50.638 50.1834C51.0262 50.7172 51.799 51.0264 52.5092 51.0264C52.5465 51.0264 52.5833 51.0264 52.6191 51.0259H52.6206C53.052 51.0259 53.4729 50.9866 53.8198 50.8658C53.8919 50.841 54.1499 50.7098 54.203 50.6556C54.3695 50.4841 54.2035 50.263 54.1603 50.1998Z" fill="white"/>
<path d="M40.6503 42.0649C39.3591 42.0649 38.2617 42.5192 37.478 43.379C36.7389 44.1891 36.3319 45.3277 36.3319 46.5841C36.3319 47.8599 36.7349 48.9543 37.4973 49.75C38.2985 50.585 39.4476 51.0263 40.8203 51.0263C42.3034 51.0263 43.5469 50.5074 44.5175 49.4836C44.6065 49.3902 44.6105 49.2192 44.5101 49.1536C44.4092 49.0875 43.9037 48.7446 43.3963 48.086C43.3356 48.0443 43.2944 48.0209 43.2338 48.0209H43.2273C43.1642 48.0229 43.105 48.0498 43.0623 48.0955C42.4793 48.7237 41.7308 48.9802 40.8675 48.9802C39.5892 48.9802 38.8015 48.3763 38.6479 47.2054H44.5796C44.6989 47.2054 44.7998 47.1154 44.8127 46.9966C44.8341 46.8063 44.845 46.5941 44.845 46.3833C44.845 45.1707 44.4469 44.0773 43.7238 43.3049C42.9644 42.4938 41.9013 42.0649 40.6503 42.0649ZM38.6887 45.4992C38.8661 44.5255 39.6186 43.9103 40.6657 43.9103C41.7229 43.9103 42.4395 44.4987 42.6249 45.4992H38.6887Z" fill="white"/>
<path d="M58.3292 42.0649C57.038 42.0649 55.9406 42.5192 55.1568 43.379C54.4178 44.1891 54.0107 45.3277 54.0107 46.5841C54.0107 47.8599 54.4138 48.9543 55.1762 49.75C55.9774 50.585 57.1265 51.0263 58.4997 51.0263C59.9822 51.0263 61.2257 50.5074 62.1964 49.4836C62.2854 49.3902 62.2893 49.2192 62.1889 49.1536C62.0881 49.0875 61.5826 48.7446 61.0752 48.086C61.015 48.0443 60.9733 48.0209 60.9126 48.0209H60.9062C60.8436 48.0229 60.7839 48.0498 60.7412 48.0955C60.1582 48.7237 59.4097 48.9802 58.5464 48.9802C57.2681 48.9802 56.4804 48.3763 56.3268 47.2054H62.2585C62.3783 47.2054 62.4787 47.1154 62.4916 46.9966C62.513 46.8063 62.5239 46.5941 62.5239 46.3833C62.5239 45.1707 62.1258 44.0773 61.4027 43.3049C60.6433 42.4938 59.5802 42.0649 58.3292 42.0649ZM56.3675 45.4992C56.5455 44.5255 57.2979 43.9103 58.3446 43.9103C59.4017 43.9103 60.1184 44.4987 60.3043 45.4992H56.3675Z" fill="white"/>
<path d="M36.7503 50.4424C36.7423 50.4339 36.7334 50.426 36.7249 50.4175C36.7184 50.4111 36.7115 50.4051 36.7055 50.3981C36.3064 49.9822 35.9834 49.4901 35.7448 48.936C35.7075 48.85 35.623 48.7943 35.5296 48.7943H31.066L36.5251 41.809C36.5569 41.7678 36.5743 41.7171 36.5743 41.6649V40.3036C36.5743 40.1739 36.4699 40.069 36.3402 40.069H33.396V38.1168C33.396 38.0527 33.3433 38 33.2787 38H31.4686C31.404 38 31.3513 38.0527 31.3513 38.1168V40.069H28.4662C28.3365 40.069 28.2316 40.1739 28.2316 40.3036V41.8816C28.2316 42.0108 28.3365 42.1157 28.4662 42.1157H33.4765L28.0497 49.0389C28.0174 49.0801 28 49.1308 28 49.1835V50.6064C28 50.7361 28.1044 50.841 28.2341 50.841H31.3528V52.7927C31.3528 52.8578 31.4055 52.91 31.4701 52.91H33.2802C33.3448 52.91 33.3975 52.8578 33.3975 52.7927V50.841H36.5833C36.6777 50.841 36.7627 50.7843 36.7995 50.6973C36.8357 50.6099 36.8164 50.5095 36.7503 50.4424Z" fill="white"/>
<defs>
<filter id="filter0_d_8408_50524" x="0.253639" y="0.253639" width="89.4927" height="89.4927" filterUnits="userSpaceOnUse" color-interpolation-filters="sRGB">
<feFlood flood-opacity="0" result="BackgroundImageFix"/>
<feColorMatrix in="SourceAlpha" type="matrix" values="0 0 0 0 0 0 0 0 0 0 0 0 0 0 0 0 0 0 127 0" result="hardAlpha"/>
<feOffset/>
<feGaussianBlur stdDeviation="8.37318"/>
<feComposite in2="hardAlpha" operator="out"/>
<feColorMatrix type="matrix" values="0 0 0 0 0 0 0 0 0 0 0 0 0 0 0 0 0 0 0.15 0"/>
<feBlend mode="normal" in2="BackgroundImageFix" result="effect1_dropShadow_8408_50524"/>
<feBlend mode="normal" in="SourceGraphic" in2="effect1_dropShadow_8408_50524" result="shape"/>
</filter>
</defs>
</svg>
